<svg width="160" height="24" viewBox="0 0 160 24" fill="none" xmlns="http://www.w3.org/2000/svg">
<g clip-path="url(#clip0_417_13)">
<mask id="mask0_417_13" style="mask-type:luminance" maskUnits="userSpaceOnUse" x="0" y="0" width="113" height="24">
<path d="M113 0H0V24H113V0Z" fill="white"/>
</mask>
<g mask="url(#mask0_417_13)">
<mask id="mask1_417_13" style="mask-type:luminance" maskUnits="userSpaceOnUse" x="0" y="0" width="129" height="24">
<path d="M129 0H0V24H129V0Z" fill="white"/>
</mask>
<g mask="url(#mask1_417_13)">
<path d="M23.8255 12.0651C23.8255 12.1871 23.8255 12.309 23.8194 12.431H18.0251V12.1647H12.4476C12.4476 12.1098 12.4476 12.0529 12.4476 12C12.4476 11.9471 12.4476 11.8882 12.4476 11.8353H18.0251V11.571H23.8154C23.8214 11.7357 23.8255 11.9004 23.8255 12.0671V12.0651ZM12.3524 10.8675L17.8104 10.1904L17.8428 10.4548L23.6067 9.7411C23.552 9.45646 23.4851 9.17384 23.4122 8.89732L17.7395 9.60081L17.7719 9.86513L12.2875 10.5442C12.3119 10.652 12.3341 10.7597 12.3524 10.8695V10.8655V10.8675ZM12.0667 9.80413L17.2836 8.49271L17.3484 8.75093L22.8834 7.35818C22.77 7.08777 22.6464 6.82345 22.5167 6.5632L17.1438 7.91528L17.2086 8.1735L11.9492 9.49712C11.9918 9.59878 12.0323 9.70247 12.0708 9.80617L12.0667 9.80413ZM11.6048 8.80786L16.4813 6.95358L16.5745 7.20163L21.7347 5.23958C21.5665 4.99356 21.3923 4.75364 21.2059 4.51982L16.2747 6.39444L16.3679 6.64249L11.4326 8.51915C11.4934 8.61267 11.5521 8.70823 11.6068 8.80583L11.6048 8.80786ZM10.9646 7.88682L15.2718 5.62589L15.3934 5.86174L20.1564 3.36089C19.9376 3.14741 19.7087 2.94409 19.4757 2.74687L15.0003 5.09726L15.1219 5.33311L10.7417 7.63267C10.8187 7.71603 10.8937 7.79939 10.9666 7.88682H10.9646ZM9.92526 6.89258L13.8253 4.3958L13.9671 4.61945L18.2703 1.86242C17.9988 1.6896 17.7232 1.52694 17.4376 1.37648L13.5092 3.8936L13.651 4.11725L9.6396 6.68722C9.73887 6.75229 9.83207 6.82345 9.92729 6.89461L9.92526 6.89258ZM9.00344 6.31108L12.2713 3.61098L12.4395 3.81633L16.1207 0.774653C15.8087 0.654693 15.4866 0.546933 15.1624 0.453406L11.8986 3.15147L12.0667 3.35683L8.67928 6.15452C8.79071 6.20332 8.89809 6.25618 9.00547 6.31108H9.00344ZM7.7838 5.83328L10.3649 3.245L10.5493 3.43206L13.8293 0.150457C13.4748 0.0914944 13.1141 0.048797 12.7474 0.0203321L9.94957 2.82413L10.1339 3.01118L7.40697 5.74382C7.53258 5.77025 7.65819 5.79871 7.78178 5.83328H7.7838ZM6.35751 5.61572L8.41591 3.10268L8.62053 3.27143L11.2989 0C10.8917 0.0182989 10.4905 0.0589631 10.0954 0.117926L7.96006 2.72247L8.16469 2.89122L5.93611 5.61369C5.99892 5.61369 6.06172 5.60962 6.12453 5.60962C6.20354 5.60962 6.28255 5.60962 6.35954 5.61369L6.35751 5.61572ZM5.1237 5.69095L6.71003 3.21857L6.93087 3.36293L8.84744 0.37411C8.40983 0.48797 7.98032 0.628262 7.56297 0.788885L6.21367 2.89326L6.4345 3.03761L4.67798 5.77635C4.82385 5.74178 4.97377 5.71128 5.1237 5.68689V5.69095ZM3.75211 6.07523L4.89273 3.92206L5.1237 4.04812L6.63305 1.19959C6.14884 1.43748 5.68287 1.7079 5.23715 2.00678L4.37003 3.64351L4.60302 3.76957L3.2598 6.30295C3.41782 6.22162 3.58193 6.14639 3.75008 6.0793L3.75211 6.07523ZM2.76951 6.5815L3.25372 5.19485L3.50291 5.28431L4.44499 2.59031C3.96686 2.97255 3.51912 3.38936 3.10177 3.84073L2.69658 4.99966L2.94577 5.08912L2.31164 6.90274C2.45954 6.78889 2.61148 6.68316 2.76951 6.58556V6.5815ZM1.56 7.5737L1.77476 6.56523L2.03205 6.62013L2.46359 4.59099C2.00977 5.17248 1.60863 5.79465 1.26421 6.45341L1.45668 6.4961L1.06364 8.16537C1.21761 7.95798 1.38374 7.76076 1.56203 7.5737H1.56ZM0.670598 8.75093V7.41511C0.350494 8.26906 0.121559 9.3304 0 10.3714C0.149922 9.79397 0.378858 9.2511 0.670598 8.7489V8.75093ZM0.00810391 13.6591C0.133714 14.5476 0.354546 15.4036 0.662494 16.2189V15.2328C0.378858 14.7469 0.156 14.2182 0.00810391 13.6571V13.6591ZM1.10213 15.8916L1.44452 17.5039L1.25205 17.5466C1.59444 18.2074 1.99761 18.8295 2.45143 19.409L2.0199 17.3799L1.7626 17.4348L1.54582 16.4141C1.38779 16.2474 1.23787 16.0725 1.10011 15.8895L1.10213 15.8916ZM2.29746 17.0912L2.93564 18.917L2.68645 19.0064L3.09164 20.1654C3.50697 20.6147 3.95673 21.0335 4.43486 21.4158L3.49278 18.7218L3.24359 18.8112L2.75735 17.4165C2.59933 17.3148 2.44738 17.2091 2.29746 17.0973V17.0932V17.0912ZM3.25169 17.695L4.59694 20.2365L4.36395 20.3626L5.23107 21.9993C5.67679 22.2982 6.14276 22.5686 6.62697 22.8065L5.11762 19.958L4.88463 20.084L3.73995 17.9248C3.5718 17.8577 3.40769 17.7804 3.24764 17.6991L3.25169 17.695ZM4.66785 18.2196L6.4264 20.9624L6.20557 21.1067L7.55487 23.2111C7.97222 23.3717 8.3997 23.512 8.83934 23.6259L6.92276 20.6371L6.70193 20.7814L5.11357 18.307C4.96364 18.2826 4.81372 18.2521 4.66582 18.2176L4.66785 18.2196ZM5.92396 18.3863L8.15253 21.1088L7.94791 21.2775L10.0833 23.8821C10.4784 23.941 10.8815 23.9817 11.2867 24L8.60635 20.7265L8.40173 20.8953L6.34333 18.3822C6.26837 18.3863 6.19341 18.3863 6.11642 18.3863C6.05159 18.3863 5.98271 18.3863 5.91788 18.3822V18.3863H5.92396ZM7.40292 18.2582L10.1279 20.9888L9.94349 21.1759L12.7414 23.9797C13.1081 23.9512 13.4687 23.9085 13.8232 23.8495L10.5452 20.5639L10.3588 20.753L7.77975 18.1667C7.65819 18.1993 7.53056 18.2318 7.40494 18.2562L7.40292 18.2582ZM8.67321 17.8495L12.0566 20.6452L11.8884 20.8506L15.1523 23.5486C15.4764 23.4551 15.7986 23.3473 16.1106 23.2274L12.4273 20.1857L12.2592 20.3911L8.99534 17.693C8.88796 17.7479 8.78058 17.8007 8.66916 17.8495H8.67321ZM9.63149 17.3168L13.6389 19.8848L13.4971 20.1084L17.4254 22.6255C17.7111 22.4751 17.9886 22.3104 18.2581 22.1396L13.9549 19.3826L13.8131 19.6062L9.91918 17.1115C9.82396 17.1826 9.72874 17.2518 9.63149 17.3189V17.3168ZM10.7357 16.3714L15.1097 18.6669L14.9882 18.9027L19.4636 21.2531C19.6986 21.0559 19.9255 20.8526 20.1443 20.6391L15.3812 18.1383L15.2597 18.3741L10.9585 16.1172C10.8856 16.2047 10.8126 16.2901 10.7336 16.3714H10.7357ZM11.4285 15.4809L16.3557 17.3555L16.2625 17.6035L21.1937 19.4781C21.3781 19.2443 21.5544 19.0044 21.7225 18.7584L16.5624 16.7963L16.4692 17.0444L11.5987 15.1921C11.544 15.2897 11.4853 15.3853 11.4245 15.4788L11.4285 15.4809ZM11.9452 14.509L17.1965 15.8306L17.1317 16.0888L22.5046 17.4409C22.6383 17.1826 22.7598 16.9163 22.8733 16.6459L17.3383 15.2531L17.2755 15.5114L12.0667 14.1999C12.0282 14.3036 11.9877 14.4073 11.9452 14.509ZM12.2855 13.4578L17.7597 14.1349L17.7273 14.3992L23.4 15.1027C23.475 14.8241 23.5398 14.5435 23.5945 14.2589L17.8306 13.5452L17.7982 13.8096L12.3483 13.1325C12.3301 13.2423 12.3078 13.3501 12.2835 13.4578H12.2855Z" fill="black"/>
<path d="M28.4348 18.9999V4.45448H33.8893C35.0067 4.45448 35.9442 4.66281 36.7018 5.07948C37.4641 5.49614 38.0394 6.06906 38.4277 6.79823C38.8206 7.52266 39.0171 8.34652 39.0171 9.26982C39.0171 10.2026 38.8206 11.0311 38.4277 11.7556C38.0347 12.48 37.4546 13.0506 36.6876 13.4672C35.9206 13.8792 34.976 14.0851 33.8538 14.0851H30.2387V11.9189H33.4987C34.1521 11.9189 34.6871 11.8053 35.1038 11.578C35.5205 11.3508 35.8282 11.0383 36.0271 10.6405C36.2307 10.2428 36.3325 9.78591 36.3325 9.26982C36.3325 8.75372 36.2307 8.29918 36.0271 7.90619C35.8282 7.5132 35.5181 7.2078 35.0967 6.99C34.68 6.76745 34.1426 6.65619 33.4845 6.65619H31.0697V18.9999H28.4348ZM41.3059 18.9999V4.45448H43.9408V16.7911H50.347V18.9999H41.3059ZM55.0488 18.9999H52.2363L57.357 4.45448H60.6098L65.7377 18.9999H62.9252L59.0402 7.43744H58.9266L55.0488 18.9999ZM55.1411 13.2968H62.8115V15.4133H55.1411V13.2968ZM75.324 8.45306C75.2577 7.8328 74.9783 7.34985 74.4859 7.0042C73.9982 6.65856 73.3637 6.48573 72.5825 6.48573C72.0332 6.48573 71.5621 6.56859 71.1691 6.73431C70.7761 6.90002 70.4755 7.12494 70.2671 7.40903C70.0588 7.69312 69.9523 8.01746 69.9475 8.38204C69.9475 8.68507 70.0162 8.94786 70.1535 9.17039C70.2956 9.39293 70.4873 9.58232 70.7288 9.73857C70.9703 9.89008 71.2378 10.0179 71.5313 10.1221C71.8249 10.2262 72.1208 10.3138 72.4191 10.3848L73.7828 10.7258C74.332 10.8536 74.8599 11.0264 75.3666 11.2442C75.8779 11.462 76.3349 11.7366 76.7373 12.0681C77.1445 12.3995 77.4665 12.7996 77.7032 13.2684C77.94 13.7371 78.0583 14.2864 78.0583 14.9161C78.0583 15.7684 77.8405 16.5188 77.4049 17.1675C76.9693 17.8115 76.3396 18.3157 75.5157 18.6803C74.6966 19.0401 73.7046 19.2201 72.5399 19.2201C71.4082 19.2201 70.4258 19.0449 69.5924 18.6945C68.7638 18.3441 68.1152 17.8328 67.6464 17.1604C67.1824 16.4881 66.9314 15.6689 66.8936 14.703H69.4859C69.5238 15.2097 69.68 15.6311 69.9546 15.9672C70.2293 16.3034 70.5867 16.5544 71.0271 16.7201C71.4722 16.8858 71.9693 16.9687 72.5186 16.9687C73.0915 16.9687 73.5934 16.8834 74.0242 16.713C74.4599 16.5378 74.8008 16.2963 75.047 15.9885C75.2932 15.676 75.4187 15.3115 75.4234 14.8948C75.4187 14.516 75.3074 14.2035 75.0896 13.9573C74.8718 13.7063 74.5664 13.498 74.1734 13.3323C73.7851 13.1618 73.3306 13.0103 72.8098 12.8777L71.1549 12.4516C69.957 12.1438 69.01 11.6775 68.314 11.0525C67.6227 10.4227 67.2771 9.58706 67.2771 8.54539C67.2771 7.68839 67.5091 6.93791 67.9731 6.29397C68.4419 5.65003 69.0787 5.15051 69.8836 4.79539C70.6885 4.43555 71.6 4.25562 72.618 4.25562C73.6502 4.25562 74.5546 4.43555 75.3311 4.79539C76.1123 5.15051 76.7255 5.6453 77.1706 6.27977C77.6156 6.9095 77.8453 7.63394 77.8595 8.45306H75.324ZM80.4074 4.45448H83.6318L87.95 14.9942H88.1205L92.4387 4.45448H95.6631V18.9999H93.1347V9.00704H92.9997L88.9799 18.9573H87.0907L83.0708 8.98573H82.9358V18.9999H80.4074V4.45448ZM100.4 18.9999H97.5878L102.708 4.45448H105.961L111.089 18.9999H108.277L104.392 7.43744H104.278L100.4 18.9999ZM100.493 13.2968H108.163V15.4133H100.493V13.2968Z" fill="black"/>
</g>
</g>
<path d="M131.432 11.7273C131.432 13.2945 131.138 14.6368 130.551 15.7543C129.969 16.867 129.173 17.7192 128.165 18.3111C127.161 18.9029 126.022 19.1989 124.749 19.1989C123.475 19.1989 122.334 18.9029 121.325 18.3111C120.321 17.7145 119.526 16.8598 118.939 15.7472C118.357 14.6297 118.065 13.2898 118.065 11.7273C118.065 10.16 118.357 8.82008 118.939 7.70739C119.526 6.58996 120.321 5.73532 121.325 5.14347C122.334 4.55161 123.475 4.25568 124.749 4.25568C126.022 4.25568 127.161 4.55161 128.165 5.14347C129.173 5.73532 129.969 6.58996 130.551 7.70739C131.138 8.82008 131.432 10.16 131.432 11.7273ZM128.783 11.7273C128.783 10.6241 128.61 9.69366 128.264 8.93608C127.923 8.17377 127.45 7.59848 126.844 7.21023C126.238 6.81723 125.539 6.62074 124.749 6.62074C123.958 6.62074 123.259 6.81723 122.653 7.21023C122.047 7.59848 121.571 8.17377 121.226 8.93608C120.885 9.69366 120.714 10.6241 120.714 11.7273C120.714 12.8305 120.885 13.7633 121.226 14.5256C121.571 15.2831 122.047 15.8584 122.653 16.2514C123.259 16.6397 123.958 16.8338 124.749 16.8338C125.539 16.8338 126.238 16.6397 126.844 16.2514C127.45 15.8584 127.923 15.2831 128.264 14.5256C128.61 13.7633 128.783 12.8305 128.783 11.7273ZM145.876 4.45455V19H143.532L136.679 9.09233H136.558V19H133.923V4.45455H136.281L143.127 14.3693H143.255V4.45455H145.876ZM148.747 19V4.45455H158.207V6.66335H151.382V10.6122H157.717V12.821H151.382V16.7912H158.264V19H148.747Z" fill="black"/>
</g>
<defs>
<clipPath id="clip0_417_13">
<rect width="160" height="24" fill="white"/>
</clipPath>
</defs>
</svg>
