<svg width="113" height="24" viewBox="0 0 113 24" fill="none" xmlns="http://www.w3.org/2000/svg">
<g clip-path="url(#clip0_202_2)">
<mask id="mask0_202_2" style="mask-type:luminance" maskUnits="userSpaceOnUse" x="0" y="0" width="129" height="24">
<path d="M129 0H0V24H129V0Z" fill="white"/>
</mask>
<g mask="url(#mask0_202_2)">
<path d="M23.8255 12.0651C23.8255 12.1871 23.8255 12.309 23.8194 12.431H18.0251V12.1647H12.4476C12.4476 12.1098 12.4476 12.0529 12.4476 12C12.4476 11.9471 12.4476 11.8882 12.4476 11.8353H18.0251V11.571H23.8154C23.8214 11.7357 23.8255 11.9004 23.8255 12.0671V12.0651ZM12.3524 10.8675L17.8104 10.1904L17.8428 10.4548L23.6067 9.7411C23.552 9.45646 23.4851 9.17384 23.4122 8.89732L17.7395 9.60081L17.7719 9.86513L12.2875 10.5442C12.3119 10.652 12.3341 10.7597 12.3524 10.8695V10.8655V10.8675ZM12.0667 9.80413L17.2836 8.49271L17.3484 8.75093L22.8834 7.35818C22.77 7.08777 22.6464 6.82345 22.5167 6.5632L17.1438 7.91528L17.2086 8.1735L11.9492 9.49712C11.9918 9.59878 12.0323 9.70247 12.0708 9.80617L12.0667 9.80413ZM11.6048 8.80786L16.4813 6.95358L16.5745 7.20163L21.7347 5.23958C21.5665 4.99356 21.3923 4.75364 21.2059 4.51982L16.2747 6.39444L16.3679 6.64249L11.4326 8.51915C11.4934 8.61267 11.5521 8.70823 11.6068 8.80583L11.6048 8.80786ZM10.9646 7.88682L15.2718 5.62589L15.3934 5.86174L20.1564 3.36089C19.9376 3.14741 19.7087 2.94409 19.4757 2.74687L15.0003 5.09726L15.1219 5.33311L10.7417 7.63267C10.8187 7.71603 10.8937 7.79939 10.9666 7.88682H10.9646ZM9.92526 6.89258L13.8253 4.3958L13.9671 4.61945L18.2703 1.86242C17.9988 1.6896 17.7232 1.52694 17.4376 1.37648L13.5092 3.8936L13.651 4.11725L9.6396 6.68722C9.73887 6.75229 9.83207 6.82345 9.92729 6.89461L9.92526 6.89258ZM9.00344 6.31108L12.2713 3.61098L12.4395 3.81633L16.1207 0.774653C15.8087 0.654693 15.4866 0.546933 15.1624 0.453406L11.8986 3.15147L12.0667 3.35683L8.67928 6.15452C8.79071 6.20332 8.89809 6.25618 9.00547 6.31108H9.00344ZM7.7838 5.83328L10.3649 3.245L10.5493 3.43206L13.8293 0.150457C13.4748 0.0914944 13.1141 0.048797 12.7474 0.0203321L9.94957 2.82413L10.1339 3.01118L7.40697 5.74382C7.53258 5.77025 7.65819 5.79871 7.78178 5.83328H7.7838ZM6.35751 5.61572L8.41591 3.10268L8.62053 3.27143L11.2989 0C10.8917 0.0182989 10.4905 0.0589631 10.0954 0.117926L7.96006 2.72247L8.16469 2.89122L5.93611 5.61369C5.99892 5.61369 6.06172 5.60962 6.12453 5.60962C6.20354 5.60962 6.28255 5.60962 6.35954 5.61369L6.35751 5.61572ZM5.1237 5.69095L6.71003 3.21857L6.93087 3.36293L8.84744 0.37411C8.40983 0.48797 7.98032 0.628262 7.56297 0.788885L6.21367 2.89326L6.4345 3.03761L4.67798 5.77635C4.82385 5.74178 4.97377 5.71128 5.1237 5.68689V5.69095ZM3.75211 6.07523L4.89273 3.92206L5.1237 4.04812L6.63305 1.19959C6.14884 1.43748 5.68287 1.7079 5.23715 2.00678L4.37003 3.64351L4.60302 3.76957L3.2598 6.30295C3.41782 6.22162 3.58193 6.14639 3.75008 6.0793L3.75211 6.07523ZM2.76951 6.5815L3.25372 5.19485L3.50291 5.28431L4.44499 2.59031C3.96686 2.97255 3.51912 3.38936 3.10177 3.84073L2.69658 4.99966L2.94577 5.08912L2.31164 6.90274C2.45954 6.78889 2.61148 6.68316 2.76951 6.58556V6.5815ZM1.56 7.5737L1.77476 6.56523L2.03205 6.62013L2.46359 4.59099C2.00977 5.17248 1.60863 5.79465 1.26421 6.45341L1.45668 6.4961L1.06364 8.16537C1.21761 7.95798 1.38374 7.76076 1.56203 7.5737H1.56ZM0.670598 8.75093V7.41511C0.350494 8.26906 0.121559 9.3304 0 10.3714C0.149922 9.79397 0.378858 9.2511 0.670598 8.7489V8.75093ZM0.00810391 13.6591C0.133714 14.5476 0.354546 15.4036 0.662494 16.2189V15.2328C0.378858 14.7469 0.156 14.2182 0.00810391 13.6571V13.6591ZM1.10213 15.8916L1.44452 17.5039L1.25205 17.5466C1.59444 18.2074 1.99761 18.8295 2.45143 19.409L2.0199 17.3799L1.7626 17.4348L1.54582 16.4141C1.38779 16.2474 1.23787 16.0725 1.10011 15.8895L1.10213 15.8916ZM2.29746 17.0912L2.93564 18.917L2.68645 19.0064L3.09164 20.1654C3.50697 20.6147 3.95673 21.0335 4.43486 21.4158L3.49278 18.7218L3.24359 18.8112L2.75735 17.4165C2.59933 17.3148 2.44738 17.2091 2.29746 17.0973V17.0932V17.0912ZM3.25169 17.695L4.59694 20.2365L4.36395 20.3626L5.23107 21.9993C5.67679 22.2982 6.14276 22.5686 6.62697 22.8065L5.11762 19.958L4.88463 20.084L3.73995 17.9248C3.5718 17.8577 3.40769 17.7804 3.24764 17.6991L3.25169 17.695ZM4.66785 18.2196L6.4264 20.9624L6.20557 21.1067L7.55487 23.2111C7.97222 23.3717 8.3997 23.512 8.83934 23.6259L6.92276 20.6371L6.70193 20.7814L5.11357 18.307C4.96364 18.2826 4.81372 18.2521 4.66582 18.2176L4.66785 18.2196ZM5.92396 18.3863L8.15253 21.1088L7.94791 21.2775L10.0833 23.8821C10.4784 23.941 10.8815 23.9817 11.2867 24L8.60635 20.7265L8.40173 20.8953L6.34333 18.3822C6.26837 18.3863 6.19341 18.3863 6.11642 18.3863C6.05159 18.3863 5.98271 18.3863 5.91788 18.3822V18.3863H5.92396ZM7.40292 18.2582L10.1279 20.9888L9.94349 21.1759L12.7414 23.9797C13.1081 23.9512 13.4687 23.9085 13.8232 23.8495L10.5452 20.5639L10.3588 20.753L7.77975 18.1667C7.65819 18.1993 7.53056 18.2318 7.40494 18.2562L7.40292 18.2582ZM8.67321 17.8495L12.0566 20.6452L11.8884 20.8506L15.1523 23.5486C15.4764 23.4551 15.7986 23.3473 16.1106 23.2274L12.4273 20.1857L12.2592 20.3911L8.99534 17.693C8.88796 17.7479 8.78058 17.8007 8.66916 17.8495H8.67321ZM9.63149 17.3168L13.6389 19.8848L13.4971 20.1084L17.4254 22.6255C17.7111 22.4751 17.9886 22.3104 18.2581 22.1396L13.9549 19.3826L13.8131 19.6062L9.91918 17.1115C9.82396 17.1826 9.72874 17.2518 9.63149 17.3189V17.3168ZM10.7357 16.3714L15.1097 18.6669L14.9882 18.9027L19.4636 21.2531C19.6986 21.0559 19.9255 20.8526 20.1443 20.6391L15.3812 18.1383L15.2597 18.3741L10.9585 16.1172C10.8856 16.2047 10.8126 16.2901 10.7336 16.3714H10.7357ZM11.4285 15.4809L16.3557 17.3555L16.2625 17.6035L21.1937 19.4781C21.3781 19.2443 21.5544 19.0044 21.7225 18.7584L16.5624 16.7963L16.4692 17.0444L11.5987 15.1921C11.544 15.2897 11.4853 15.3853 11.4245 15.4788L11.4285 15.4809ZM11.9452 14.509L17.1965 15.8306L17.1317 16.0888L22.5046 17.4409C22.6383 17.1826 22.7598 16.9163 22.8733 16.6459L17.3383 15.2531L17.2755 15.5114L12.0667 14.1999C12.0282 14.3036 11.9877 14.4073 11.9452 14.509ZM12.2855 13.4578L17.7597 14.1349L17.7273 14.3992L23.4 15.1027C23.475 14.8241 23.5398 14.5435 23.5945 14.2589L17.8306 13.5452L17.7982 13.8096L12.3483 13.1325C12.3301 13.2423 12.3078 13.3501 12.2835 13.4578H12.2855Z" fill="white"/>
<path d="M28.4347 19V4.45455H33.8892C35.0066 4.45455 35.9441 4.66288 36.7017 5.07955C37.464 5.49621 38.0393 6.06913 38.4276 6.7983C38.8205 7.52273 39.017 8.34659 39.017 9.26989C39.017 10.2027 38.8205 11.0312 38.4276 11.7557C38.0346 12.4801 37.4545 13.0507 36.6875 13.4673C35.9205 13.8793 34.9759 14.0852 33.8537 14.0852H30.2386V11.919H33.4986C34.152 11.919 34.687 11.8054 35.1037 11.5781C35.5204 11.3509 35.8281 11.0384 36.027 10.6406C36.2306 10.2429 36.3324 9.78598 36.3324 9.26989C36.3324 8.75379 36.2306 8.29924 36.027 7.90625C35.8281 7.51326 35.518 7.20786 35.0966 6.99006C34.6799 6.76752 34.1425 6.65625 33.4844 6.65625H31.0696V19H28.4347ZM41.3058 19V4.45455H43.9407V16.7912H50.3469V19H41.3058ZM55.0487 19H52.2362L57.3569 4.45455H60.6097L65.7376 19H62.9251L59.0401 7.4375H58.9265L55.0487 19ZM55.141 13.2969H62.8114V15.4134H55.141V13.2969ZM75.3239 8.45312C75.2576 7.83286 74.9782 7.34991 74.4858 7.00426C73.9981 6.65862 73.3636 6.4858 72.5824 6.4858C72.0331 6.4858 71.562 6.56866 71.169 6.73438C70.776 6.90009 70.4754 7.125 70.267 7.40909C70.0587 7.69318 69.9522 8.01752 69.9474 8.3821C69.9474 8.68513 70.0161 8.94792 70.1534 9.17045C70.2955 9.39299 70.4872 9.58239 70.7287 9.73864C70.9702 9.89015 71.2377 10.018 71.5312 10.1222C71.8248 10.2263 72.1207 10.3139 72.419 10.3849L73.7827 10.7259C74.3319 10.8537 74.8598 11.0265 75.3665 11.2443C75.8778 11.4621 76.3348 11.7367 76.7372 12.0682C77.1444 12.3996 77.4664 12.7997 77.7031 13.2685C77.9399 13.7372 78.0582 14.2865 78.0582 14.9162C78.0582 15.7685 77.8404 16.5189 77.4048 17.1676C76.9692 17.8116 76.3395 18.3158 75.5156 18.6804C74.6965 19.0402 73.7045 19.2202 72.5398 19.2202C71.4081 19.2202 70.4257 19.045 69.5923 18.6946C68.7637 18.3442 68.1151 17.8329 67.6463 17.1605C67.1823 16.4882 66.9313 15.669 66.8935 14.7031H69.4858C69.5237 15.2098 69.6799 15.6312 69.9545 15.9673C70.2292 16.3035 70.5866 16.5545 71.027 16.7202C71.4721 16.8859 71.9692 16.9688 72.5185 16.9688C73.0914 16.9688 73.5933 16.8835 74.0241 16.7131C74.4598 16.5379 74.8007 16.2964 75.0469 15.9886C75.2931 15.6761 75.4186 15.3116 75.4233 14.8949C75.4186 14.5161 75.3073 14.2036 75.0895 13.9574C74.8717 13.7064 74.5663 13.4981 74.1733 13.3324C73.785 13.1619 73.3305 13.0104 72.8097 12.8778L71.1548 12.4517C69.9569 12.1439 69.0099 11.6776 68.3139 11.0526C67.6226 10.4228 67.277 9.58712 67.277 8.54545C67.277 7.68845 67.509 6.93797 67.973 6.29403C68.4418 5.65009 69.0786 5.15057 69.8835 4.79545C70.6884 4.43561 71.5999 4.25568 72.6179 4.25568C73.6501 4.25568 74.5545 4.43561 75.331 4.79545C76.1122 5.15057 76.7254 5.64536 77.1705 6.27983C77.6155 6.90956 77.8452 7.634 77.8594 8.45312H75.3239ZM80.4073 4.45455H83.6317L87.9499 14.9943H88.1204L92.4386 4.45455H95.663V19H93.1346V9.0071H92.9996L88.9798 18.9574H87.0906L83.0707 8.9858H82.9357V19H80.4073V4.45455ZM100.4 19H97.5877L102.708 4.45455H105.961L111.089 19H108.277L104.392 7.4375H104.278L100.4 19ZM100.493 13.2969H108.163V15.4134H100.493V13.2969Z" fill="white"/>
</g>
</g>
<defs>
<clipPath id="clip0_202_2">
<rect width="113" height="24" fill="white"/>
</clipPath>
</defs>
</svg>
