<svg width="146" height="24" viewBox="0 0 146 24" fill="none" xmlns="http://www.w3.org/2000/svg">
<g clip-path="url(#clip0_538_2)">
<mask id="mask0_538_2" style="mask-type:luminance" maskUnits="userSpaceOnUse" x="0" y="0" width="146" height="24">
<path d="M146 0H0V24H146V0Z" fill="white"/>
</mask>
<g mask="url(#mask0_538_2)">
<path d="M31.8144 20.0421H29.9141V4.14844H37.4021C40.7044 4.14844 42.4691 6.26094 42.4691 8.80246C42.4691 12.0272 40.206 13.7513 37.4021 13.7513H31.8144V20.04V20.0421ZM31.8144 5.897V12.0048H37.4933C39.4625 12.0048 40.5241 10.5734 40.5241 8.80246C40.5241 6.91767 39.1667 5.897 37.4933 5.897H31.8144Z" fill="black"/>
<path d="M46.4679 20.0421H44.5898V4.14844H46.4679V20.0421Z" fill="black"/>
<path d="M53.2462 20.2262C50.5314 20.2262 48.7891 18.8193 48.7891 16.6153C48.7891 13.846 51.4593 13.3235 53.856 13.0734C55.6895 12.8924 57.2718 12.9148 57.2941 11.9389C57.2718 10.418 56.0279 9.35062 54.2166 9.35062C52.4054 9.35062 51.1169 10.3265 50.9143 11.7579H49.0585C49.2854 9.39738 51.4107 7.73828 54.2612 7.73828C57.1118 7.73828 59.1256 9.50921 59.1256 12.0527V20.0453H57.3832V17.9795C56.6823 19.3642 55.3248 20.2283 53.2442 20.2283L53.2462 20.2262ZM53.5177 18.6139C55.7564 18.6139 57.2961 17.1825 57.2961 15.1859V13.6183C56.7754 14.3218 55.4403 14.458 53.9695 14.6166C52.3183 14.7976 50.6671 15.0253 50.6671 16.5685C50.6671 17.8169 51.7976 18.6119 53.5177 18.6119V18.6139Z" fill="black"/>
<path d="M66.0941 20.2934C63.2435 20.2934 61.1385 18.7949 60.9805 16.2513H62.812C62.9477 17.8189 64.374 18.681 66.1832 18.681C67.881 18.681 68.6934 18.0223 68.6934 16.8186C68.6934 15.6841 67.8121 15.434 66.5661 15.0029L64.8238 14.4133C63.0591 13.8237 61.2945 13.2788 61.2945 11.0992C61.2945 9.0558 62.8788 7.73828 65.5025 7.73828C68.1261 7.73828 69.9819 9.16966 70.2757 11.8474H68.4422C68.2396 10.168 67.0625 9.35062 65.4336 9.35062C63.9627 9.35062 63.1037 10.0094 63.1037 11.0545C63.1037 12.3028 64.4165 12.5529 65.4113 12.8945L67.0402 13.4394C69.2343 14.1653 70.5471 14.9155 70.5471 16.9142C70.5471 19.0267 69.0094 20.2974 66.09 20.2974L66.0941 20.2934Z" fill="black"/>
<path d="M74.3761 20.0433H72.498V8.01073H73.9911L74.1714 9.87315C74.9859 8.578 76.548 7.73828 78.266 7.73828C80.0752 7.73828 81.4325 8.66949 82.0444 10.1232C82.8142 8.71626 84.4655 7.73828 86.297 7.73828C88.8315 7.73828 90.4604 9.53157 90.4604 11.9836V20.0433H88.5823V12.0507C88.5823 10.4384 87.5875 9.39332 85.9809 9.39332C83.7402 9.39332 82.4294 10.8918 82.4071 12.7319V20.0433H80.5512V12.0507C80.5512 10.4384 79.5566 9.39332 77.95 9.39332C75.7092 9.39332 74.3984 10.8918 74.3761 12.7319V20.0433Z" fill="black"/>
<path d="M96.5274 20.2262C93.8126 20.2262 92.0703 18.8193 92.0703 16.6153C92.0703 13.846 94.7405 13.3235 97.1372 13.0734C98.9707 12.8924 100.553 12.9148 100.576 11.9389C100.553 10.418 99.3091 9.35062 97.4978 9.35062C95.6866 9.35062 94.3981 10.3265 94.1955 11.7579H92.3397C92.5666 9.39738 94.6919 7.73828 97.5424 7.73828C100.393 7.73828 102.407 9.50921 102.407 12.0527V20.0453H100.665V17.9795C99.9635 19.3642 98.6061 20.2283 96.5233 20.2283L96.5274 20.2262ZM96.7989 18.6139C99.0376 18.6139 100.578 17.1825 100.578 15.1859V13.6183C100.057 14.3218 98.7215 14.458 97.2507 14.6166C95.5995 14.7976 93.9483 15.0253 93.9483 16.5685C93.9483 17.8169 95.0788 18.6119 96.7989 18.6119V18.6139Z" fill="black"/>
<path d="M23.8255 12.0651C23.8255 12.1871 23.8255 12.309 23.8194 12.431H18.0251V12.1647H12.4476C12.4476 12.1098 12.4476 12.0529 12.4476 12C12.4476 11.9471 12.4476 11.8882 12.4476 11.8353H18.0251V11.571H23.8154C23.8214 11.7357 23.8255 11.9004 23.8255 12.0671V12.0651ZM12.3524 10.8675L17.8104 10.1904L17.8428 10.4548L23.6067 9.7411C23.552 9.45646 23.4851 9.17384 23.4122 8.89732L17.7395 9.60081L17.7719 9.86513L12.2875 10.5442C12.3119 10.652 12.3341 10.7597 12.3524 10.8695V10.8655V10.8675ZM12.0667 9.80413L17.2836 8.49271L17.3484 8.75093L22.8834 7.35818C22.77 7.08777 22.6464 6.82345 22.5167 6.5632L17.1438 7.91528L17.2086 8.1735L11.9492 9.49712C11.9918 9.59878 12.0323 9.70247 12.0708 9.80617L12.0667 9.80413ZM11.6048 8.80786L16.4813 6.95358L16.5745 7.20163L21.7347 5.23958C21.5665 4.99356 21.3923 4.75364 21.2059 4.51982L16.2747 6.39444L16.3679 6.64249L11.4326 8.51915C11.4934 8.61267 11.5521 8.70823 11.6068 8.80583L11.6048 8.80786ZM10.9646 7.88682L15.2718 5.62589L15.3934 5.86174L20.1564 3.36089C19.9376 3.14741 19.7087 2.94409 19.4757 2.74687L15.0003 5.09726L15.1219 5.33311L10.7417 7.63267C10.8187 7.71603 10.8937 7.79939 10.9666 7.88682H10.9646ZM9.92526 6.89258L13.8253 4.3958L13.9671 4.61945L18.2703 1.86242C17.9988 1.6896 17.7232 1.52694 17.4376 1.37648L13.5092 3.8936L13.651 4.11725L9.6396 6.68722C9.73887 6.75229 9.83207 6.82345 9.92729 6.89461L9.92526 6.89258ZM9.00344 6.31108L12.2713 3.61098L12.4395 3.81633L16.1207 0.774653C15.8087 0.654693 15.4866 0.546933 15.1624 0.453406L11.8986 3.15147L12.0667 3.35683L8.67928 6.15452C8.79071 6.20332 8.89809 6.25618 9.00547 6.31108H9.00344ZM7.7838 5.83328L10.3649 3.245L10.5493 3.43206L13.8293 0.150457C13.4748 0.0914944 13.1141 0.048797 12.7474 0.0203321L9.94957 2.82413L10.1339 3.01118L7.40697 5.74382C7.53258 5.77025 7.65819 5.79871 7.78178 5.83328H7.7838ZM6.35751 5.61572L8.41591 3.10268L8.62053 3.27143L11.2989 0C10.8917 0.0182989 10.4905 0.0589631 10.0954 0.117926L7.96006 2.72247L8.16469 2.89122L5.93611 5.61369C5.99892 5.61369 6.06172 5.60962 6.12453 5.60962C6.20354 5.60962 6.28255 5.60962 6.35954 5.61369L6.35751 5.61572ZM5.1237 5.69095L6.71003 3.21857L6.93087 3.36293L8.84744 0.37411C8.40983 0.48797 7.98032 0.628262 7.56297 0.788885L6.21367 2.89326L6.4345 3.03761L4.67798 5.77635C4.82385 5.74178 4.97377 5.71128 5.1237 5.68689V5.69095ZM3.75211 6.07523L4.89273 3.92206L5.1237 4.04812L6.63305 1.19959C6.14884 1.43748 5.68287 1.7079 5.23715 2.00678L4.37003 3.64351L4.60302 3.76957L3.2598 6.30295C3.41782 6.22162 3.58193 6.14639 3.75008 6.0793L3.75211 6.07523ZM2.76951 6.5815L3.25372 5.19485L3.50291 5.28431L4.44499 2.59031C3.96686 2.97255 3.51912 3.38936 3.10177 3.84073L2.69658 4.99966L2.94577 5.08912L2.31164 6.90274C2.45954 6.78889 2.61148 6.68316 2.76951 6.58556V6.5815ZM1.56 7.5737L1.77476 6.56523L2.03205 6.62013L2.46359 4.59099C2.00977 5.17248 1.60863 5.79465 1.26421 6.45341L1.45668 6.4961L1.06364 8.16537C1.21761 7.95798 1.38374 7.76076 1.56203 7.5737H1.56ZM0.670598 8.75093V7.41511C0.350494 8.26906 0.121559 9.3304 0 10.3714C0.149922 9.79397 0.378858 9.2511 0.670598 8.7489V8.75093ZM0.00810391 13.6591C0.133714 14.5476 0.354546 15.4036 0.662494 16.2189V15.2328C0.378858 14.7469 0.156 14.2182 0.00810391 13.6571V13.6591ZM1.10213 15.8916L1.44452 17.5039L1.25205 17.5466C1.59444 18.2074 1.99761 18.8295 2.45143 19.409L2.0199 17.3799L1.7626 17.4348L1.54582 16.4141C1.38779 16.2474 1.23787 16.0725 1.10011 15.8895L1.10213 15.8916ZM2.29746 17.0912L2.93564 18.917L2.68645 19.0064L3.09164 20.1654C3.50697 20.6147 3.95673 21.0335 4.43486 21.4158L3.49278 18.7218L3.24359 18.8112L2.75735 17.4165C2.59933 17.3148 2.44738 17.2091 2.29746 17.0973V17.0932V17.0912ZM3.25169 17.695L4.59694 20.2365L4.36395 20.3626L5.23107 21.9993C5.67679 22.2982 6.14276 22.5686 6.62697 22.8065L5.11762 19.958L4.88463 20.084L3.73995 17.9248C3.5718 17.8577 3.40769 17.7804 3.24764 17.6991L3.25169 17.695ZM4.66785 18.2196L6.4264 20.9624L6.20557 21.1067L7.55487 23.2111C7.97222 23.3717 8.3997 23.512 8.83934 23.6259L6.92276 20.6371L6.70193 20.7814L5.11357 18.307C4.96364 18.2826 4.81372 18.2521 4.66582 18.2176L4.66785 18.2196ZM5.92396 18.3863L8.15253 21.1088L7.94791 21.2775L10.0833 23.8821C10.4784 23.941 10.8815 23.9817 11.2867 24L8.60635 20.7265L8.40173 20.8953L6.34333 18.3822C6.26837 18.3863 6.19341 18.3863 6.11642 18.3863C6.05159 18.3863 5.98271 18.3863 5.91788 18.3822V18.3863H5.92396ZM7.40292 18.2582L10.1279 20.9888L9.94349 21.1759L12.7414 23.9797C13.1081 23.9512 13.4687 23.9085 13.8232 23.8495L10.5452 20.5639L10.3588 20.753L7.77975 18.1667C7.65819 18.1993 7.53056 18.2318 7.40494 18.2562L7.40292 18.2582ZM8.67321 17.8495L12.0566 20.6452L11.8884 20.8506L15.1523 23.5486C15.4764 23.4551 15.7986 23.3473 16.1106 23.2274L12.4273 20.1857L12.2592 20.3911L8.99534 17.693C8.88796 17.7479 8.78058 17.8007 8.66916 17.8495H8.67321ZM9.63149 17.3168L13.6389 19.8848L13.4971 20.1084L17.4254 22.6255C17.7111 22.4751 17.9886 22.3104 18.2581 22.1396L13.9549 19.3826L13.8131 19.6062L9.91918 17.1115C9.82396 17.1826 9.72874 17.2518 9.63149 17.3189V17.3168ZM10.7357 16.3714L15.1097 18.6669L14.9882 18.9027L19.4636 21.2531C19.6986 21.0559 19.9255 20.8526 20.1443 20.6391L15.3812 18.1383L15.2597 18.3741L10.9585 16.1172C10.8856 16.2047 10.8126 16.2901 10.7336 16.3714H10.7357ZM11.4285 15.4809L16.3557 17.3555L16.2625 17.6035L21.1937 19.4781C21.3781 19.2443 21.5544 19.0044 21.7225 18.7584L16.5624 16.7963L16.4692 17.0444L11.5987 15.1921C11.544 15.2897 11.4853 15.3853 11.4245 15.4788L11.4285 15.4809ZM11.9452 14.509L17.1965 15.8306L17.1317 16.0888L22.5046 17.4409C22.6383 17.1826 22.7598 16.9163 22.8733 16.6459L17.3383 15.2531L17.2755 15.5114L12.0667 14.1999C12.0282 14.3036 11.9877 14.4073 11.9452 14.509ZM12.2855 13.4578L17.7597 14.1349L17.7273 14.3992L23.4 15.1027C23.475 14.8241 23.5398 14.5435 23.5945 14.2589L17.8306 13.5452L17.7982 13.8096L12.3483 13.1325C12.3301 13.2423 12.3078 13.3501 12.2835 13.4578H12.2855Z" fill="black"/>
<path d="M110.091 19.3016C108.978 18.6144 108.117 17.6384 107.511 16.3738C106.904 15.1091 106.602 13.633 106.602 11.9454C106.602 10.2579 106.902 8.77976 107.501 7.50697C108.101 6.23418 108.956 5.25011 110.068 4.55475C111.181 3.85939 112.475 3.51172 113.954 3.51172C115.433 3.51172 116.728 3.85533 117.84 4.54255C118.952 5.22978 119.815 6.20165 120.431 7.45817C121.045 8.7147 121.353 10.1867 121.353 11.8743C121.353 13.5618 121.049 15.044 120.443 16.325C119.836 17.6059 118.972 18.594 117.852 19.2874C116.732 19.9827 115.433 20.3304 113.954 20.3304C112.475 20.3304 111.203 19.9868 110.091 19.2996V19.3016ZM118.377 17.2053C119.442 15.9326 119.975 14.1555 119.975 11.8763C119.975 9.59711 119.447 7.87498 118.389 6.61643C117.331 5.3599 115.852 4.73164 113.954 4.73164C112.056 4.73164 110.601 5.3599 109.542 6.61643C108.484 7.87295 107.955 9.62558 107.955 11.8763C107.955 14.1271 108.484 15.9143 109.542 17.1932C110.599 18.4741 112.07 19.1145 113.954 19.1145C115.838 19.1145 117.311 18.4781 118.377 17.2053Z" fill="black"/>
<path d="M123.383 7.70852H124.528L124.668 10.2846C125.073 9.41031 125.662 8.72309 126.442 8.22292C127.22 7.72275 128.075 7.47266 129.009 7.47266C130.239 7.47266 131.203 7.85897 131.904 8.63159C132.605 9.40421 132.962 10.4635 132.978 11.8054V20.1212H131.671V11.9925C131.671 10.9149 131.422 10.0874 130.924 9.50994C130.425 8.93251 129.672 8.63566 128.659 8.61939C127.881 8.61939 127.192 8.81052 126.592 9.19276C125.993 9.575 125.527 10.1036 125.192 10.7746C124.858 11.4455 124.69 12.1958 124.69 13.0233V20.1212H123.383V7.70648V7.70852Z" fill="black"/>
<path d="M137.479 19.5133C136.608 18.9664 135.939 18.2101 135.471 17.2402C135.005 16.2724 134.77 15.1643 134.77 13.9139C134.77 12.6635 135.019 11.5716 135.518 10.5876C136.016 9.60346 136.705 8.83897 137.584 8.29204C138.463 7.74511 139.448 7.47266 140.536 7.47266C141.624 7.47266 142.651 7.73901 143.478 8.26968C144.302 8.80034 144.932 9.5628 145.368 10.553C145.803 11.5452 146.014 12.7041 145.998 14.0318H136.077C136.107 15.5933 136.52 16.8437 137.315 17.779C138.109 18.7163 139.183 19.184 140.536 19.184C141.517 19.184 142.345 18.9379 143.022 18.4459C143.698 17.9539 144.193 17.2544 144.505 16.3497H145.743C145.431 17.5676 144.809 18.5354 143.875 19.2551C142.941 19.9728 141.829 20.3327 140.536 20.3327C139.369 20.3327 138.35 20.0603 137.479 19.5133ZM144.693 12.9298C144.568 11.5716 144.144 10.5144 143.421 9.75595C142.698 8.9996 141.735 8.61125 140.538 8.59702C139.355 8.59702 138.364 8.9874 137.562 9.76815C136.76 10.5489 136.281 11.6042 136.125 12.9298H144.691H144.693Z" fill="black"/>
</g>
</g>
<defs>
<clipPath id="clip0_538_2">
<rect width="146" height="24" fill="white"/>
</clipPath>
</defs>
</svg>
