<svg width="98" height="75" viewBox="0 0 98 75" fill="none" xmlns="http://www.w3.org/2000/svg">
<path d="M73 2.68091C44.6 -10.1191 12.5 26.0142 0 45.6809H18C41 4.68091 64.5 1.34758 73 2.68091Z" fill="#E43131"/>
<path d="M86.5 8.68089C59.7 -7.31911 32.3333 26.3476 22 45.1809H38.5C53.7 10.7809 76.8333 6.51422 86.5 8.68089Z" fill="#135293"/>
<path d="M25 71.6809C53.4 84.4809 85.5 48.3476 98 28.6809H80C57 69.6809 33.5 73.0142 25 71.6809Z" fill="#E43131"/>
<path d="M11.5 65.6809C38.3 81.6809 65.6667 48.0143 76 29.1809H59.5C44.3 63.5809 21.1667 67.8476 11.5 65.6809Z" fill="#135293"/>
</svg>
