<svg width="40" height="40" viewBox="0 0 40 40" fill="none" xmlns="http://www.w3.org/2000/svg">
<path d="M8 0.25H32C36.2802 0.25 39.75 3.71979 39.75 8V32C39.75 36.2802 36.2802 39.75 32 39.75H8C3.71979 39.75 0.25 36.2802 0.25 32V8C0.25 3.71979 3.71979 0.25 8 0.25Z" fill="white"/>
<path d="M8 0.25H32C36.2802 0.25 39.75 3.71979 39.75 8V32C39.75 36.2802 36.2802 39.75 32 39.75H8C3.71979 39.75 0.25 36.2802 0.25 32V8C0.25 3.71979 3.71979 0.25 8 0.25Z" stroke="#CCCCCC" stroke-width="0.5"/>
<g clip-path="url(#clip0_300_408)">
<path d="M15.6665 20.0001C15.6665 21.1494 16.1231 22.2516 16.9357 23.0642C17.7484 23.8769 18.8506 24.3334 19.9998 24.3334C21.1491 24.3334 22.2513 23.8769 23.064 23.0642C23.8766 22.2516 24.3332 21.1494 24.3332 20.0001C24.3332 18.8508 23.8766 17.7486 23.064 16.936C22.2513 16.1233 21.1491 15.6667 19.9998 15.6667C18.8506 15.6667 17.7484 16.1233 16.9357 16.936C16.1231 17.7486 15.6665 18.8508 15.6665 20.0001Z" stroke="#232323" stroke-linecap="round" stroke-linejoin="round"/>
<path d="M15.6667 20H24.3333M20 15.6667C22.1667 18.5556 22.1667 21.4444 20 24.3333C17.8333 21.4444 17.8333 18.5556 20 15.6667ZM19.5 13C19.5 13.1326 19.5527 13.2598 19.6464 13.3536C19.7402 13.4473 19.8674 13.5 20 13.5C20.1326 13.5 20.2598 13.4473 20.3536 13.3536C20.4473 13.2598 20.5 13.1326 20.5 13C20.5 12.8674 20.4473 12.7402 20.3536 12.6464C20.2598 12.5527 20.1326 12.5 20 12.5C19.8674 12.5 19.7402 12.5527 19.6464 12.6464C19.5527 12.7402 19.5 12.8674 19.5 13ZM24.45 15.05C24.45 15.1826 24.5027 15.3098 24.5964 15.4036C24.6902 15.4973 24.8174 15.55 24.95 15.55C25.0826 15.55 25.2098 15.4973 25.3036 15.4036C25.3973 15.3098 25.45 15.1826 25.45 15.05C25.45 14.9174 25.3973 14.7902 25.3036 14.6964C25.2098 14.6027 25.0826 14.55 24.95 14.55C24.8174 14.55 24.6902 14.6027 24.5964 14.6964C24.5027 14.7902 24.45 14.9174 24.45 15.05ZM26.5 20C26.5 20.1326 26.5527 20.2598 26.6464 20.3536C26.7402 20.4473 26.8674 20.5 27 20.5C27.1326 20.5 27.2598 20.4473 27.3536 20.3536C27.4473 20.2598 27.5 20.1326 27.5 20C27.5 19.8674 27.4473 19.7402 27.3536 19.6464C27.2598 19.5527 27.1326 19.5 27 19.5C26.8674 19.5 26.7402 19.5527 26.6464 19.6464C26.5527 19.7402 26.5 19.8674 26.5 20ZM24.45 24.95C24.45 25.0826 24.5027 25.2098 24.5964 25.3036C24.6902 25.3973 24.8174 25.45 24.95 25.45C25.0826 25.45 25.2098 25.3973 25.3036 25.3036C25.3973 25.2098 25.45 25.0826 25.45 24.95C25.45 24.8174 25.3973 24.6902 25.3036 24.5964C25.2098 24.5027 25.0826 24.45 24.95 24.45C24.8174 24.45 24.6902 24.5027 24.5964 24.5964C24.5027 24.6902 24.45 24.8174 24.45 24.95ZM19.5 27C19.5 27.1326 19.5527 27.2598 19.6464 27.3536C19.7402 27.4473 19.8674 27.5 20 27.5C20.1326 27.5 20.2598 27.4473 20.3536 27.3536C20.4473 27.2598 20.5 27.1326 20.5 27C20.5 26.8674 20.4473 26.7402 20.3536 26.6464C20.2598 26.5527 20.1326 26.5 20 26.5C19.8674 26.5 19.7402 26.5527 19.6464 26.6464C19.5527 26.7402 19.5 26.8674 19.5 27ZM14.55 24.95C14.55 25.0826 14.6027 25.2098 14.6964 25.3036C14.7902 25.3973 14.9174 25.45 15.05 25.45C15.1826 25.45 15.3098 25.3973 15.4036 25.3036C15.4973 25.2098 15.55 25.0826 15.55 24.95C15.55 24.8174 15.4973 24.6902 15.4036 24.5964C15.3098 24.5027 15.1826 24.45 15.05 24.45C14.9174 24.45 14.7902 24.5027 14.6964 24.5964C14.6027 24.6902 14.55 24.8174 14.55 24.95ZM12.5 20C12.5 20.1326 12.5527 20.2598 12.6464 20.3536C12.7402 20.4473 12.8674 20.5 13 20.5C13.1326 20.5 13.2598 20.4473 13.3536 20.3536C13.4473 20.2598 13.5 20.1326 13.5 20C13.5 19.8674 13.4473 19.7402 13.3536 19.6464C13.2598 19.5527 13.1326 19.5 13 19.5C12.8674 19.5 12.7402 19.5527 12.6464 19.6464C12.5527 19.7402 12.5 19.8674 12.5 20ZM14.55 15.05C14.55 15.1826 14.6027 15.3098 14.6964 15.4036C14.7902 15.4973 14.9174 15.55 15.05 15.55C15.1826 15.55 15.3098 15.4973 15.4036 15.4036C15.4973 15.3098 15.55 15.1826 15.55 15.05C15.55 14.9174 15.4973 14.7902 15.4036 14.6964C15.3098 14.6027 15.1826 14.55 15.05 14.55C14.9174 14.55 14.7902 14.6027 14.6964 14.6964C14.6027 14.7902 14.55 14.9174 14.55 15.05Z" stroke="#232323" stroke-linecap="round" stroke-linejoin="round"/>
</g>
<defs>
<clipPath id="clip0_300_408">
<rect width="16" height="16" fill="white" transform="translate(12 12)"/>
</clipPath>
</defs>
</svg>
