<svg width="40" height="40" viewBox="0 0 40 40" fill="none" xmlns="http://www.w3.org/2000/svg">
<path d="M8 0.25H32C36.2802 0.25 39.75 3.71979 39.75 8V32C39.75 36.2802 36.2802 39.75 32 39.75H8C3.71979 39.75 0.25 36.2802 0.25 32V8C0.25 3.71979 3.71979 0.25 8 0.25Z" fill="white"/>
<path d="M8 0.25H32C36.2802 0.25 39.75 3.71979 39.75 8V32C39.75 36.2802 36.2802 39.75 32 39.75H8C3.71979 39.75 0.25 36.2802 0.25 32V8C0.25 3.71979 3.71979 0.25 8 0.25Z" stroke="#CCCCCC" stroke-width="0.5"/>
<path d="M24.6154 14H15.8462C15.3565 14 14.8869 14.1945 14.5407 14.5407C14.1945 14.8869 14 15.3565 14 15.8462V26L16.3077 24.6154L18.6154 26L20.9231 24.6154L23.2308 26V15.3846C23.2308 15.0174 23.3767 14.6652 23.6363 14.4055C23.896 14.1459 24.2482 14 24.6154 14ZM24.6154 14C24.9826 14 25.3348 14.1459 25.5945 14.4055C25.8542 14.6652 26 15.0174 26 15.3846V18.6154H23.2308" stroke="#232323" stroke-linecap="round" stroke-linejoin="round"/>
<path d="M16.9692 19.6914C16.9692 17.9713 18.1421 17.2729 18.8203 17.2729C19.4985 17.2729 20.6288 17.9697 20.6288 19.7463C20.6288 21.5229 19.6042 22.1412 18.8203 22.1412C18.0365 22.1412 16.9692 21.4116 16.9692 19.6914Z" stroke="#232323"/>
</svg>
