<svg width="40" height="40" viewBox="0 0 40 40" fill="none" xmlns="http://www.w3.org/2000/svg">
<path d="M8 0.25H32C36.2802 0.25 39.75 3.71979 39.75 8V32C39.75 36.2802 36.2802 39.75 32 39.75H8C3.71979 39.75 0.25 36.2802 0.25 32V8C0.25 3.71979 3.71979 0.25 8 0.25Z" fill="white"/>
<path d="M8 0.25H32C36.2802 0.25 39.75 3.71979 39.75 8V32C39.75 36.2802 36.2802 39.75 32 39.75H8C3.71979 39.75 0.25 36.2802 0.25 32V8C0.25 3.71979 3.71979 0.25 8 0.25Z" stroke="#CCCCCC" stroke-width="0.5"/>
<g clip-path="url(#clip0_300_398)">
<path d="M23.4608 14.7699H22.3488C22.1778 14.7692 22.012 14.8282 21.8799 14.9367C21.7479 15.0453 21.6579 15.1966 21.6255 15.3645C21.5932 15.5324 21.6205 15.7063 21.7028 15.8561C21.7851 16.006 21.9171 16.1224 22.0761 16.1852L23.2048 16.6366C23.3632 16.6996 23.4947 16.816 23.5767 16.9655C23.6586 17.1151 23.6859 17.2885 23.6538 17.456C23.6216 17.6235 23.5321 17.7746 23.4007 17.8832C23.2692 17.9918 23.104 18.0512 22.9334 18.0512H21.8201M22.6408 14.7699V13.9752M22.6408 18.7606V18.0512" stroke="#232323" stroke-linecap="round" stroke-linejoin="round"/>
<path d="M22.1335 23.6133L26.2782 22.2893L26.3068 22.2813C26.54 22.2302 26.7837 22.2657 26.9926 22.3812C27.2015 22.4966 27.3612 22.6841 27.442 22.9087C27.5227 23.1333 27.519 23.3796 27.4314 23.6017C27.3438 23.8237 27.1785 24.0063 26.9662 24.1153C18.8748 28.3046 20.9388 28.1153 12.4995 25.304M18.8808 16.4106C18.8808 17.4078 19.277 18.3642 19.9821 19.0694C20.6873 19.7745 21.6436 20.1706 22.6408 20.1706C23.6381 20.1706 24.5944 19.7745 25.2996 19.0694C26.0047 18.3642 26.4008 17.4078 26.4008 16.4106C26.4008 15.4134 26.0047 14.4571 25.2996 13.7519C24.5944 13.0468 23.6381 12.6506 22.6408 12.6506C21.6436 12.6506 20.6873 13.0468 19.9821 13.7519C19.277 14.4571 18.8808 15.4134 18.8808 16.4106Z" stroke="#232323" stroke-linecap="round" stroke-linejoin="round"/>
<path d="M12.5 20.1707H13.9667C15.6714 20.1534 17.3251 20.7518 18.624 21.856L18.6513 21.88H21.3847C21.6574 21.8793 21.9192 21.9869 22.1126 22.1793C22.3059 22.3716 22.415 22.6329 22.4157 22.9057C22.4164 23.1784 22.3087 23.4402 22.1164 23.6336C21.924 23.8269 21.6627 23.9359 21.39 23.9367L17.234 23.9573" stroke="#232323" stroke-linecap="round" stroke-linejoin="round"/>
</g>
<defs>
<clipPath id="clip0_300_398">
<rect width="16" height="16" fill="white" transform="translate(12 12)"/>
</clipPath>
</defs>
</svg>
