<svg width="40" height="40" viewBox="0 0 40 40" fill="none" xmlns="http://www.w3.org/2000/svg">
<path d="M8 0.25H32C36.2802 0.25 39.75 3.71979 39.75 8V32C39.75 36.2802 36.2802 39.75 32 39.75H8C3.71979 39.75 0.25 36.2802 0.25 32V8C0.25 3.71979 3.71979 0.25 8 0.25Z" fill="white"/>
<path d="M8 0.25H32C36.2802 0.25 39.75 3.71979 39.75 8V32C39.75 36.2802 36.2802 39.75 32 39.75H8C3.71979 39.75 0.25 36.2802 0.25 32V8C0.25 3.71979 3.71979 0.25 8 0.25Z" stroke="#CCCCCC" stroke-width="0.5"/>
<path d="M15 20.5L20.5 13.5V19.5H24L18.5 26.5V20.5H15Z" stroke="#232323" stroke-linecap="square" stroke-linejoin="round"/>
</svg>
