<svg xmlns="http://www.w3.org/2000/svg" xmlns:xlink="http://www.w3.org/1999/xlink" width="100" height="22"><use fill="#04223A" xlink:href="#path0_fill"/><use fill="#04223A" transform="translate(86.18 5.9)" xlink:href="#path1_fill"/><use fill="#04223A" transform="translate(47.71 5.6)" xlink:href="#path2_fill"/><use fill="#04223A" transform="translate(71.72 6.1)" xlink:href="#path3_fill"/><use fill="#04223A" transform="translate(23.03 3.3)" xlink:href="#path4_fill"/><use fill="#04223A" transform="translate(60.15 5.6)" xlink:href="#path5_fill"/><use fill="#04223A" transform="translate(36.71 5.9)" xlink:href="#path6_fill"/><defs><path id="path0_fill" d="M0 9.95c.03-.12.06-.23.07-.34.17-1.94.87-3.8 2.02-5.36a10.22 10.22 0 0115.19-1.6 10.71 10.71 0 01.32 15.51 10.32 10.32 0 01-5 2.7c-.46.1-.94.14-1.42.21l-.2.04H9.86l-.2-.04a10.37 10.37 0 01-7.3-3.89 10.64 10.64 0 01-2.28-5.7 2.73 2.73 0 00-.07-.34v-1.2zm10.97-.13l.02.17.27 2.74c.07.72.15 1.44.2 2.16a2.35 2.35 0 00.86 1.71 2.92 2.92 0 003.49.15 2.28 2.28 0 001.03-2.2l-.1-.84A1961.02 1961.02 0 0116 5.93a2.24 2.24 0 00-.57-1.3 6.3 6.3 0 00-.46-.47 2.2 2.2 0 00-2.34-.5l-.42.13-4.84 1.46-3.05.9c-.38.12-.73.32-1.01.6a2.98 2.98 0 00-.09 4.05c.6.62 1.3.88 2.15.71.22-.05.44-.13.66-.2l4.66-1.4.28-.1z"/><path id="path1_fill" d="M6.32 11.93v.82a.14.14 0 01-.04.11.13.13 0 01-.11.04H.3c-.12 0-.16-.04-.17-.16v-.8l.2-.07c.66-.22.92-.54.97-1.25.03-.48.05-.96.05-1.44V3.97c0-.51-.03-1.02-.05-1.53 0-.1-.02-.2-.05-.3A.98.98 0 00.6 1.4L0 1.22v-1L.15.22 4.78.1h.14c.18.01.21.06.2.24l-.15 1.41v.2l.2-.18A9.62 9.62 0 016.87.55c1-.55 2.16-.7 3.26-.4 1.08.25 1.77.95 2.12 2.01.16.5.26 1.02.28 1.54.03.36.04.73.04 1.1v4.34c0 .5.03 1 .04 1.5l.02.15c.02.25.12.48.28.67.16.2.38.32.62.38l.25.08.04.04v.8a.14.14 0 01-.04.11.13.13 0 01-.12.04H7.81c-.15 0-.19-.04-.19-.18v-.8l.3-.1a1 1 0 00.76-.82c.06-.34.1-.68.1-1.02a176.6 176.6 0 00-.03-5.73 4.42 4.42 0 00-.16-1.01c-.25-.9-.86-1.26-1.77-1a2.24 2.24 0 00-1.69 2.03l.01 5.69c0 .3.03.59.07.88.02.25.11.48.27.66.16.18.38.3.61.35a3.77 3.77 0 01.23.07z"/><path id="path2_fill" d="M12.36 11.92v.83a.14.14 0 01-.04.12.13.13 0 01-.12.04H7.75c-.15-.01-.19-.05-.18-.2l.08-1.19.02-.28c-.1-.03-.13.04-.18.08-.35.29-.69.6-1.05.86a4.86 4.86 0 01-3.22.93 3.89 3.89 0 01-1.68-.46A2.78 2.78 0 01.1 10.68a3.3 3.3 0 011.18-3.4 6.3 6.3 0 012.04-1.04c.9-.28 1.84-.48 2.78-.58l1.12-.13c.02-.01.03-.02.03-.04 0-.71.04-1.43-.07-2.15a2.86 2.86 0 00-.37-1.08 1.43 1.43 0 00-1.14-.7c-.31-.04-.63 0-.93.08-.27.08-.52.24-.7.46-.26.3-.45.66-.55 1.05-.09.3-.15.6-.23.91l-.17.01H.9a.14.14 0 01-.1-.04.15.15 0 01-.04-.12V1.62l1.26-.53c1-.44 2.07-.75 3.15-.95a8.34 8.34 0 013.4.07c.81.2 1.47.63 1.9 1.39.2.36.34.75.42 1.16.09.47.13.95.13 1.44v5.02c0 .52.04 1.05.07 1.57 0 .1.02.2.05.28a.89.89 0 00.6.68l.62.17zm-5.1-4.99L6 7.1c-.43.07-.85.22-1.24.44A2.08 2.08 0 003.75 8.9c-.08.33-.1.68-.06 1.02a1.25 1.25 0 00.92 1.12c.31.1.65.1.96.03.48-.1.9-.37 1.21-.75.3-.39.48-.86.49-1.35V7.12l-.02-.19z"/><path id="path3_fill" d="M0 11.73l.29-.1c.3-.1.6-.27.83-.49.34-.3.66-.62.96-.95l2.8-3.2.06-.1-.12-.18-2.89-4.15c-.22-.31-.46-.6-.7-.9l-.12-.13c-.24-.25-.5-.48-.9-.52V.62.2C.21.04.25.02.38 0h5.87a.14.14 0 01.1.04.15.15 0 01.05.12V1l-.17.04-.37.16a.47.47 0 00-.24.5c.02.14.06.27.12.38.06.14.14.27.23.39l1.24 1.8.07.09.1-.1 1.15-1.47c.12-.15.22-.3.31-.46.1-.17.14-.35.15-.54a.66.66 0 00-.42-.67l-.33-.1-.2-.03V.14a.14.14 0 01.05-.1.13.13 0 01.1-.04h4.58c.14 0 .18.05.19.18v.8a.87.87 0 01-.12.04c-.41.11-.78.33-1.08.63-.29.29-.56.59-.83.89A637.22 637.22 0 008.21 5.7l.12.19 2.78 4 .62.85c.35.44.76.8 1.32.96l.04.03v.82c0 .1-.06.15-.16.15H7.05c-.14-.01-.18-.04-.19-.19v-.8l.22-.05c.1-.02.2-.05.29-.1a.45.45 0 00.26-.42.97.97 0 00-.14-.53 833.85 833.85 0 00-1.5-2.22l-.12-.16-.11.12-1.25 1.56-.32.45c-.11.18-.17.4-.16.6a.6.6 0 00.38.6c.18.07.35.12.53.16v.84a.13.13 0 01-.08.13H.16a.13.13 0 01-.12-.03.13.13 0 01-.04-.11v-.82z"/><path id="path4_fill" d="M11.51 4.1l-.24-.84c-.09-.27-.17-.5-.27-.74-.07-.15-.16-.3-.26-.44a1.38 1.38 0 00-1.07-.58c-.4-.03-.8-.03-1.2-.04a.32.32 0 00-.07.02l-.02.18v11.17c0 .3.03.6.08.9a.83.83 0 00.55.67c.18.07.38.1.56.16l.14.03v.74a.14.14 0 01-.03.1.13.13 0 01-.1.04H3.64c-.15 0-.19-.03-.19-.18v-.69l.14-.04.43-.11c.46-.12.68-.45.72-.91.03-.27.04-.54.04-.81V1.51c-.02-.02-.04-.04-.06-.04-.47-.02-.93 0-1.4.05-.37.07-.7.27-.93.58-.18.26-.32.55-.41.85l-.3.99c0 .05-.02.1-.04.15H.23c-.2 0-.23-.02-.23-.22V.21c0-.18.03-.2.22-.2h12.62c.3 0 .31-.04.31.32v3.58c0 .16-.03.18-.18.19h-1.46z"/><path id="path5_fill" d="M10.57 10.77C9.48 11.85 8.32 12.73 6.8 13a7 7 0 01-3.57-.3A4.66 4.66 0 01.5 9.84a7.84 7.84 0 01-.45-2.1C0 7.12 0 6.48.04 5.84a6.92 6.92 0 011.14-3.36 5.49 5.49 0 013-2.15 7.7 7.7 0 012.5-.31c1.14.01 2.28.18 3.39.48l.26.08.01.19v2.87c0 .04-.01.07-.04.1a.13.13 0 01-.09.03H7.87l-.15-.01-.11-.55a3.8 3.8 0 00-.39-1.08 1.1 1.1 0 00-.75-.58 1.56 1.56 0 00-1.51.49c-.24.26-.42.56-.53.9a7.1 7.1 0 00-.4 1.82c-.1.88-.11 1.77-.05 2.65.03.6.14 1.2.33 1.78a4 4 0 00.27.6 2.14 2.14 0 001.94 1.17c.61.03 1.22-.14 1.72-.48.34-.23.65-.5.98-.75l.15-.13c.1-.09.16-.1.24 0l.96 1.18z"/><path id="path6_fill" d="M10.65.2v3.36c0 .22-.04.28-.29.28H8.26l-.08-.21c-.1-.27-.22-.52-.36-.77a1.07 1.07 0 00-1.47-.41 2.04 2.04 0 00-1.2 1.78c-.02.3-.03.61-.03.93V9.3c0 .46.04.92.07 1.38l.05.25a1.1 1.1 0 00.82.88l.4.1v.84a.14.14 0 01-.05.1.13.13 0 01-.1.04H.37c-.2 0-.23-.02-.23-.24v-.74l.27-.09c.54-.15.82-.54.87-1.09a16 16 0 00.08-1.4V3.76c0-.48-.05-.95-.07-1.43 0-.07-.02-.13-.04-.2A.98.98 0 00.6 1.4c-.2-.07-.4-.12-.61-.18v-1L.12.2l4.7-.1h.1c.18 0 .22.05.2.23l-.14 1.55-.01.17.16-.16c.34-.4.74-.76 1.16-1.06.87-.6 1.9-.9 2.95-.82.43.02.86.1 1.29.15l.12.03z"/></defs></svg>