<?xml version="1.0" standalone="no"?><!DOCTYPE svg PUBLIC "-//W3C//DTD SVG 1.1//EN" "http://www.w3.org/Graphics/SVG/1.1/DTD/svg11.dtd"><svg t="1770375822235" class="icon" viewBox="0 0 3487 1024" version="1.1" xmlns="http://www.w3.org/2000/svg" p-id="12983" xmlns:xlink="http://www.w3.org/1999/xlink" width="217.9375" height="64"><path d="M246.396541 157.779027c0.719568-0.470486 1.660541-0.940973 1.937297-1.660541 4.28973-9.132973 11.734486-12.730811 21.559351-12.73081h262.393081c2.87827 0 5.756541-0.276757 8.38573-0.276757 2.158703 1.715892 2.158703 4.345081 2.158703 6.503784 0.249081 3.127351 0 6.005622 0 9.132973 0 244.237838 0 488.503351-0.249081 732.519783 0 19.705081 6.725189 28.810378 28.28454 28.090811 24.908108-0.940973 49.843892-0.221405 74.779676-0.221405 3.348757 0 6.918919-0.719568 9.824865 2.380108 0 12.509405-0.719568 24.742054 0 37.251459 0.470486 11.264-9.354378 22.804757-23.026162 22.804757a15113.132973 15113.132973 0 0 0-208.951352 0 23.690378 23.690378 0 0 1-23.718054-24.022486c0.221405-165.721946 0.221405-331.665297 0.221406-497.387244 0-8.883892 0-8.883892-8.607136-8.883891-37.860324 0-75.499243-0.498162-113.359567 0.221405-13.422703 0.276757-24.908108-1.439135-31.854703-14.640432 0.221405-92.713514 0.221405-185.897514 0.221406-279.081514z" fill="#1792FF" p-id="12984"></path><path d="M655.470703 921.79373c-29.004108 0-58.229622-0.968649-87.23373 0-18.210595 0.719568-28.035459-9.132973-27.814054-28.339892 0.498162-247.143784 0.276757-494.508973 0.276757-741.901838 0-2.87827 0-5.756541-0.276757-8.38573 0-12.730811 0.276757-25.710703 0-38.441513-0.221405-11.513081 11.264-21.365622 21.587027-21.365622 109.983135 0.221405 219.993946-0.249081 330.226162 0.470487 50.563459 0.249081 97.750486 14.391351 141.865514 39.382486a297.928649 297.928649 0 0 1 109.042162 106.634378 290.373189 290.373189 0 0 1 41.209081 120.333838c10.295351 93.903568-17.020541 175.325405-80.757622 244.486919-35.701622 38.662919-79.097081 65.093189-128.940973 80.951352a288.768 288.768 0 0 1-85.794594 13.671783c-28.755027 0-57.288649 0.276757-86.016 0-6.005622 0-7.195676 1.937297-7.195676 7.472433 0.249081 66.504649-0.221405 133.036973 0.249081 199.818378 0.221405 15.830486-9.603459 25.932108-25.40627 25.683027-35.480216-0.719568-71.181838-0.249081-106.88346-0.249081-2.407784-0.470486-5.258378-0.221405-8.136648-0.221405z" fill="#1792FF" opacity=".4" p-id="12985"></path><path d="M1417.077622 254.477838V172.474811h272.273297v82.003027h-89.004973v228.324324h-95.176649v-228.324324h-88.091675zM1817.240216 381.260108c13.007568 13.893189 29.363892 20.839784 49.124325 20.839784 19.788108 0 36.172108-6.918919 49.152-20.839784 13.007568-14.474378 19.483676-32.352865 19.483675-53.635459 0-21.587027-6.503784-39.299459-19.483675-53.192649-12.703135-14.169946-29.059459-21.282595-49.124325-21.282595-20.092541 0-36.448865 7.112649-49.152 21.310271-13.007568 13.837838-19.483676 31.605622-19.483675 53.164973 0 21.282595 6.503784 39.161081 19.483675 53.635459z m-69.936432 60.305297c-31.273514-31.328865-46.937946-69.299892-46.937946-113.940756 0-44.613189 15.636757-82.584216 46.937946-113.913081 31.55027-31.633297 71.264865-47.436108 119.088432-47.436109 47.491459 0 87.04 15.802811 118.617946 47.436109 31.273514 31.328865 46.937946 69.299892 46.937946 113.913081 0 44.917622-15.636757 83.027027-46.937946 114.383567-31.273514 31.301189-70.822054 46.993297-118.645621 46.993298-47.795892 0-87.482811-15.830486-119.060757-47.436109zM2165.815351 482.774486h-95.176648V172.474811h95.204324v115.684324l87.178378-115.684324h112.00346l-109.789406 144.079567 131.929946 166.220108h-116.874378l-104.475676-133.867243v133.867243zM2650.084324 482.774486h-245.676973V172.474811h243.020108v82.003027h-147.843459v27.481946h115.961081v75.360865h-115.961081v43.45081h150.500324v82.003027zM2777.032649 482.774486h-91.191352V172.474811h81.006703l118.645622 149.836108V172.474811h90.305729v310.299675h-78.349837l-120.416865-150.721729v150.721729zM1425.740108 560.709189h142.52973c35.701622 0 64.041514 9.465081 85.019676 28.367568 21.531676 18.930162 32.297514 43.174054 32.297513 72.704 0 29.557622-10.765838 53.801514-32.325189 72.704-20.950486 18.930162-49.262703 28.367568-84.964324 28.367567h-47.380757v108.184217h-95.204325V560.709189z m95.176649 133.009297h34.511567c9.741838 0 17.574054-2.518486 23.468973-7.555459a25.683027 25.683027 0 0 0 9.299027-20.369297 24.409946 24.409946 0 0 0-9.299027-19.954162c-6.199351-5.036973-14.003892-7.555459-23.468973-7.55546h-34.511567v55.434378zM1822.111135 769.522162c12.979892 13.893189 29.336216 20.812108 49.124324 20.812108 19.788108 0 36.172108-6.918919 49.152-20.812108 13.007568-14.502054 19.483676-32.380541 19.483676-53.663135 0-21.559351-6.503784-39.299459-19.483676-53.192649-12.703135-14.169946-29.059459-21.254919-49.152-21.254919-20.064865 0-36.448865 7.084973-49.124324 21.254919-13.007568 13.893189-19.483676 31.633297-19.483676 53.192649 0 21.31027 6.503784 39.161081 19.483676 53.663135z m-69.936432 60.277622c-31.273514-31.328865-46.937946-69.299892-46.937946-113.940757 0-44.613189 15.636757-82.584216 46.91027-113.913081 31.577946-31.633297 71.292541-47.436108 119.088432-47.436108 47.519135 0 87.067676 15.802811 118.645622 47.436108 31.273514 31.328865 46.937946 69.299892 46.937946 113.913081 0 44.945297-15.636757 83.054703-46.937946 114.383568-31.273514 31.328865-70.84973 46.993297-118.645622 46.993297-47.795892 0-87.510486-15.830486-119.088432-47.436108zM2244.165189 877.235892c-50.757189 0-93.100973-14.944865-127.031351-44.779243-33.653622-30.166486-50.480432-68.995459-50.480433-116.597622 0-47.574486 16.688432-86.292757 50.037622-116.127135 33.044757-30.166486 75.250162-45.222054 126.588541-45.222054 30.72 0 56.818162 5.479784 78.377513 16.411676v89.973621c-25.101838-13.561081-50.342054-20.369297-75.720649-20.369297-23.607351 0-43.063351 7.223351-58.423351 21.69773-15.36 14.197622-23.026162 32.076108-23.026162 53.635459 0 22.168216 7.970595 40.351135 23.911784 54.521081 16.245622 13.920865 36.587243 20.839784 61.080216 20.839784 30.111135 0 55.628108-7.36173 76.60627-22.140541v91.32973c-21.559351 11.208649-48.847568 16.826811-81.92 16.826811zM2462.498595 871.036541h-95.176649V560.709189h95.204324v115.684325l87.178379-115.684325h112.003459l-109.76173 144.079568 131.902271 166.247784h-116.874379l-104.475675-133.894919v133.894919zM2946.767568 871.036541h-245.676973V560.709189h243.020108v82.030703h-147.84346v27.481946h115.988757v75.360865h-115.988757v43.450811h150.500325v82.003027zM2968.797405 642.739892V560.709189h272.245622v82.030703h-88.977297v228.296649h-95.176649v-228.324325h-88.091676z" fill="#1792FF" p-id="12986"></path></svg>