<?xml version="1.0" standalone="no"?><!DOCTYPE svg PUBLIC "-//W3C//DTD SVG 1.1//EN" "http://www.w3.org/Graphics/SVG/1.1/DTD/svg11.dtd"><svg t="1770374988382" class="icon" viewBox="0 0 3413 1024" version="1.1" xmlns="http://www.w3.org/2000/svg" p-id="4756" xmlns:xlink="http://www.w3.org/1999/xlink" width="213.3125" height="64"><path d="M529.283879 600.560485c-10.146909 6.516364-22.093576 7.292121-31.154424 2.11006-11.543273-6.609455-17.873455-22.062545-17.873455-43.566545v-64.325818c0-31.030303-12.101818-53.154909-32.364606-59.112727-34.350545-10.146909-60.167758 32.426667-69.849212 48.407272l-60.571152 99.514182v-121.638788c-0.682667-27.958303-9.619394-44.683636-26.65503-49.741576-11.264-3.351273-28.113455-2.01697-44.497455 23.396849l-135.633454 220.780606a245.232485 245.232485 0 0 1-27.585939-113.353697c0-132.995879 105.161697-241.198545 234.371878-241.198545 129.241212 0 234.371879 108.202667 234.371879 241.198545l0.062061 0.620606v0.682667c1.210182 25.755152-7.012848 46.235152-22.621091 56.226909z m74.627879-57.530182v-1.334303C603.198061 379.717818 474.980848 248.242424 317.44 248.242424 159.526788 248.242424 31.030303 380.493576 31.030303 543.030303S159.526788 837.818182 317.47103 837.818182a281.134545 281.134545 0 0 0 194.746182-78.599758 27.306667 27.306667 0 0 0 1.396364-37.856969 25.63103 25.63103 0 0 0-36.80194-1.458425 229.996606 229.996606 0 0 1-159.340606 64.325818c-69.197576 0-131.444364-31.030303-174.390303-80.275393l122.321455-199.121455v91.787636c0 44.094061 16.880485 58.33697 31.030303 62.526061 14.149818 4.158061 35.777939 1.303273 58.492121-36.088242l67.273697-110.56097a200.766061 200.766061 0 0 1 5.957818-9.309091v55.916606c0 41.208242 16.290909 74.162424 44.683637 90.422303 25.56897 14.615273 57.747394 13.312 83.968-3.475394 31.77503-20.324848 48.903758-57.809455 47.104-103.020606z m398.801454-100.693333c6.888727 4.220121 12.846545 13.653333 12.846546 22.155636 0 13.684364-11.481212 25.010424-24.296728 25.010424a28.765091 28.765091 0 0 1-9.153939-1.892848c-15.142788-11.326061-34.381576-18.866424-54.551273-18.866424-47.693576 0-80.678788 39.625697-80.678788 88.653575 0 49.089939 32.985212 88.219152 80.678788 88.219152 23.831273 0 44.900848-9.929697 60.943515-24.979394a24.513939 24.513939 0 0 1 14.211879-4.716606c12.846545 0 22.962424 10.364121 22.962424 23.58303a25.010424 25.010424 0 0 1-11.481212 20.262788c-22.931394 19.828364-54.085818 33.016242-86.171151 33.016242-73.355636 0-132.964848-61.315879-132.964849-136.781575 0-75.465697 59.578182-136.781576 132.964849-136.781576 27.492848 0 53.620364 8.471273 74.689939 23.117576z m134.11297 57.064727c49.958788 0 92.16 42.914909 92.16 95.728485 0 52.844606-42.201212 97.652364-92.16 97.652363-52.25503 0-95.790545-44.807758-95.790546-97.652363 0-52.813576 43.535515-95.728485 95.790546-95.728485z m-0.465455 146.214788c22.031515 0 40.804848-21.224727 40.804849-49.989818 0-28.765091-18.773333-46.700606-40.804849-46.700606-23.831273 0-43.535515 17.470061-43.535515 46.700606 0 28.765091 19.704242 49.989818 43.535515 49.989818z m124.028121 17.904485v-134.857697c0-14.646303 11.481212-26.903273 25.693091-26.903273 14.211879 0 26.127515 12.25697 26.127516 26.903273v134.857697c0 14.646303-11.915636 26.903273-26.127516 26.903272-14.211879 0-25.693091-12.25697-25.693091-26.903272z m-4.096-212.681697c0-17.470061 13.28097-31.619879 29.789091-31.619879 16.942545 0 30.72 14.149818 30.72 31.619879a30.657939 30.657939 0 0 1-30.72 30.657939 30.161455 30.161455 0 0 1-29.789091-30.657939z m155.182546 139.574303v73.107394c0 14.646303-11.915636 26.903273-26.127515 26.903272-14.211879 0-25.693091-12.25697-25.693091-26.903272V522.550303c0-11.326061 9.18497-20.759273 20.169697-20.759273 11.015758 0 19.735273 9.433212 19.735273 20.759273 21.100606-19.797333 39.408485-23.117576 56.816484-23.117576 51.820606 0 74.752 39.625697 74.752 84.402425v79.747878c0 14.584242-11.915636 26.872242-26.127515 26.872243-14.211879 0-25.693091-12.25697-25.693091-26.903273v-73.107394c0-23.086545-2.730667-42.449455-35.281454-42.449454-22.931394 0-32.581818 19.362909-32.581818 42.449454h0.03103z m288.116364 27.865212a16.787394 16.787394 0 0 1-13.28097-6.640485l-60.509091-66.466909v118.349576c0 14.646303-11.915636 26.903273-26.127515 26.903272-14.211879 0-25.693091-12.25697-25.693091-26.903272V429.149091a10.146909 10.146909 0 0 1 9.650424-6.640485c4.561455 0 8.22303 3.785697 10.984727 6.640485l96.287031 109.878303c2.730667 3.320242 6.392242 5.182061 8.25406 5.182061 1.830788 0 5.492364-1.861818 8.223031-5.151031l96.28703-109.909333c2.761697-2.854788 6.423273-6.640485 10.984727-6.640485 4.592485 0 8.285091 2.854788 9.619394 6.640485v234.371879c0 14.646303-11.450182 26.903273-25.66206 26.903272-14.211879 0-26.127515-12.25697-26.127516-26.903272V545.202424l-60.509091 66.466909c-3.196121 3.785697-7.323152 6.640485-12.38109 6.640485z m249.173333 27.337697c23.396848 0 43.101091-21.224727 43.101091-49.989818 0-28.765091-20.169697-47.662545-43.101091-47.662546-22.900364 0-41.270303 19.362909-41.270303 47.662546 0 27.803152 18.369939 49.989818 41.270303 49.989818z m55.016727 24.048485l-0.930909-6.144c-10.053818 20.293818-42.170182 29.261576-62.805333 29.261575-48.593455 0-84.340364-44.807758-84.340364-97.652363 0-52.813576 36.677818-95.728485 87.102061-95.728485 8.688485 0 37.577697 2.358303 60.043636 29.261576l0.930909-6.144c0-11.326061 8.688485-20.759273 19.704243-20.759273s20.169697 9.433212 20.169697 20.759273v147.145697a20.635152 20.635152 0 0 1-20.169697 20.759272c-10.984727 0-19.735273-9.433212-19.735273-20.759272h0.03103z m183.606303-121.700849h-5.492363c-32.550788 1.923879-38.94303 20.790303-38.943031 42.449455v73.107394c0 14.646303-11.915636 26.903273-26.158545 26.903272-14.211879 0-25.662061-12.25697-25.662061-26.903272V522.550303c0-11.326061 9.153939-20.759273 20.169697-20.759273 11.015758 0 19.735273 9.433212 19.735273 20.759273 19.238788-18.40097 34.816-22.155636 50.889697-23.117576h5.026909c12.381091 0 23.831273 10.860606 23.831273 24.51394 0 12.722424-11.015758 24.048485-23.396849 24.048485z m199.68 103.330909a24.110545 24.110545 0 0 1 3.661576 12.722425c0 13.653333-12.381091 26.406788-25.662061 26.406787-9.18497 0-16.973576-7.074909-22.931394-14.615272l-59.578181-70.283637v58.026667c0 14.584242-11.946667 26.872242-26.158546 26.872242-14.211879 0-25.662061-12.25697-25.66206-26.903272v-214.109091c0-14.646303 11.481212-26.872242 25.66206-26.872243 14.211879 0 26.127515 12.225939 26.127515 26.872243v133.492363l59.609212-66.994424c5.957818-7.074909 13.28097-14.149818 22.46594-14.149818 12.846545 0 24.762182 12.25697 24.762182 25.941333 0 4.251152-0.930909 8.471273-3.227152 12.25697l-47.197091 52.348121 48.09697 58.957576zM2488.630303 548.926061c-14.211879 0-37.143273 7.540364-37.143273 29.696h74.72097c0-22.621091-23.831273-29.696-37.577697-29.696z m67.832242 63.208727h-104.975515c0 31.588848 29.789091 36.305455 43.101091 36.305454 9.619394 0 23.365818-1.861818 33.916121-6.609454a24.948364 24.948364 0 0 1 13.312-4.251152c11.450182 0 21.069576 9.929697 21.069576 21.721212a22.55903 22.55903 0 0 1-11.481212 18.866425c-16.011636 11.791515-36.646788 14.615273-56.35103 14.615272-52.25503 0-95.821576-28.765091-95.821576-95.26303 0-52.348121 26.59297-98.117818 88.467394-98.117818 49.958788 0 88.03297 33.016242 88.932848 91.973818a20.635152 20.635152 0 0 1-20.169697 20.759273z m144.197819 80.647757h-14.211879c-39.408485 0-62.339879-17.470061-62.339879-80.182303v-64.636121h-13.28097c-12.412121 0-23.396848-11.29503-23.396848-24.017454 0-13.715394 10.984727-24.54497 23.396848-24.54497h13.28097v-49.989818c0-14.646303 11.481212-26.903273 25.662061-26.903273 14.211879 0 26.127515 12.25697 26.127515 26.903273v49.989818h21.53503c12.412121 0 23.396848 10.860606 23.396849 24.513939 0 12.722424-10.984727 24.048485-23.396849 24.048485h-21.53503v54.24097c0 35.87103 1.861818 43.411394 17.43903 43.411394h7.323152c12.381091 0 22.931394 10.395152 22.931394 23.58303 0 12.722424-10.550303 23.58303-22.931394 23.58303z m251.035151-250.445575c6.826667 4.220121 12.815515 13.653333 12.815515 22.155636 0 13.684364-11.481212 25.010424-24.296727 25.010424a28.672 28.672 0 0 1-9.153939-1.892848c-15.142788-11.326061-34.412606-18.866424-54.582303-18.866424-47.662545 0-80.678788 39.625697-80.678788 88.653575 0 49.089939 33.016242 88.219152 80.678788 88.219152 23.831273 0 44.931879-9.929697 60.974545-24.979394a24.513939 24.513939 0 0 1 14.211879-4.716606c12.846545 0 22.931394 10.364121 22.931394 23.58303a25.010424 25.010424 0 0 1-11.481212 20.262788c-22.900364 19.828364-54.085818 33.016242-86.171152 33.016242-73.355636 0-132.933818-61.315879-132.933818-136.781575 0-75.465697 59.578182-136.781576 132.933818-136.781576 27.523879 0 53.620364 8.471273 74.72097 23.117576z m131.351273 203.279515c23.365818 0 43.070061-21.224727 43.07006-49.989818 0-28.765091-20.169697-47.662545-43.10109-47.662546-22.900364 0-41.270303 19.362909-41.270303 47.662546 0 27.803152 18.369939 49.989818 41.270303 49.989818z m54.985697 24.048485l-0.930909-6.144c-10.053818 20.293818-42.139152 29.261576-62.805334 29.261575-48.562424 0-84.340364-44.807758-84.340363-97.652363 0-52.813576 36.677818-95.728485 87.10206-95.728485 8.688485 0 37.608727 2.358303 60.074667 29.261576l0.899879-6.144c0-11.326061 8.688485-20.759273 19.704242-20.759273s20.169697 9.433212 20.169697 20.759273v147.145697a20.666182 20.666182 0 0 1-20.169697 20.759272c-10.984727 0-19.704242-9.433212-19.704242-20.759272z m182.24097-24.048485c22.931394 0 41.270303-22.186667 41.270303-49.989818 0-28.299636-18.338909-47.662545-41.270303-47.662546-22.931394 0-43.101091 18.866424-43.101091 47.662546 0 28.765091 19.735273 49.989818 43.101091 49.989818z m-43.101091 31.619879v66.963394c0 14.615273-11.915636 26.872242-26.127516 26.872242-14.211879 0-25.662061-12.25697-25.66206-26.872242v-221.680485c0-11.326061 9.153939-20.759273 20.169697-20.759273 10.984727 0 19.735273 9.433212 19.735273 22.652121 19.238788-20.293818 43.070061-25.010424 60.943515-25.010424 50.424242 0 87.102061 42.914909 87.10206 95.728485 0 52.844606-35.746909 97.652364-84.340363 97.652363-15.142788 0-37.608727-4.716606-51.820606-15.546181z" fill="#17181B" p-id="4757"></path></svg>