<?xml version="1.0" standalone="no"?><!DOCTYPE svg PUBLIC "-//W3C//DTD SVG 1.1//EN" "http://www.w3.org/Graphics/SVG/1.1/DTD/svg11.dtd"><svg t="1770375011175" class="icon" viewBox="0 0 4415 1024" version="1.1" xmlns="http://www.w3.org/2000/svg" p-id="5783" xmlns:xlink="http://www.w3.org/1999/xlink" width="275.9375" height="64"><path d="M215.623 512l-99.737 99.65L16.236 512l99.65-99.65z m241.8-241.972L628.19 440.883l99.651-99.651L457.422 70.813 187.004 341.232l99.65 99.65zM799.044 412.35L699.395 512l99.65 99.65L898.609 512zM457.422 753.972L286.654 583.204l-99.65 99.564 270.418 270.419 270.42-270.419-99.652-99.564z m0-142.321L557.073 512l-99.65-99.65L357.771 512z m1051.677 9.568v-1.38c0-64.996-34.481-97.495-90.6-118.873 34.482-19.396 63.618-49.825 63.618-104.392v-1.379c0-76.031-60.86-125.167-159.734-125.167h-224.472v483.944h230.161c109.22 0 181.2-44.222 181.2-132.753z m-132.753-206.887c0 35.947-29.74 51.205-76.72 51.205h-98.013v-102.15h105.081c44.912 0 69.825 17.93 69.825 49.738z m26.982 193.612c0 35.947-28.361 52.498-75.428 52.498h-126.287V554.153h123.011c54.653 0 78.876 20.086 78.876 52.584z m329.467 146.028V270.028H1625.99v483.944z m572.302 0V270.028h-105.426v298.004l-226.714-298.004h-98.185v483.944h105.081V446.313l234.3 307.659z m589.715 0l-207.75-487.392h-98.185L2381.56 753.972h108.53l44.394-108.53h204.646l44.222 108.53z m-193.526-202.577h-128.96l64.308-156.89z m701.003 202.577V270.028h-105.427v298.004l-226.8-298.004h-98.099v483.944h104.996V446.313l234.385 307.659z m549.544-78.1l-67.67-68.445c-38.015 34.48-71.893 56.635-127.235 56.635-82.928 0-140.339-68.962-140.339-152.062v-1.38c0-82.927 58.79-150.682 140.339-150.682 48.36 0 86.203 20.689 123.787 54.566l67.497-78.1c-44.912-44.222-99.478-74.651-190.767-74.651-148.614 0-252.316 112.667-252.316 249.988v1.38c0 138.959 105.77 248.868 248.178 248.868 93.186 0.258 148.442-32.93 198.18-86.117z m454.29 78.1v-94.824H4143.03V557.343h228.18v-94.824h-228.18v-97.754h259.298v-94.823h-365.07v483.944z" fill="#F0B90B" p-id="5784"></path></svg>