<?xml version="1.0" standalone="no"?><!DOCTYPE svg PUBLIC "-//W3C//DTD SVG 1.1//EN" "http://www.w3.org/Graphics/SVG/1.1/DTD/svg11.dtd"><svg t="1770375218031" class="icon" viewBox="0 0 4170 1024" version="1.1" xmlns="http://www.w3.org/2000/svg" p-id="9389" xmlns:xlink="http://www.w3.org/1999/xlink" width="260.625" height="64"><path d="M1095.775701 362.92739h422.188354V441.696621h-166.004314v442.800863h-91.283968V441.696621h-165.268153V362.92739z m404.152408 143.919483h78.03307v72.879942h1.472322c2.576564-10.306254 7.36161-20.244428 14.35514-29.814522 6.99353-9.570093 15.459382-18.772106 25.397556-26.501797 9.938174-8.097771 20.98059-14.35514 33.127247-19.508267 12.146657-4.785047 24.661395-7.36161 37.176132-7.361611 9.570093 0 16.563623 0.368081 20.244428 0.736161s7.36161 1.104242 11.410496 1.472322v80.241553c-5.889288-1.104242-11.778577-1.840403-18.035945-2.576563-6.257369-0.736161-12.146657-1.104242-18.035945-1.104242-13.98706 0-27.237958 2.944644-39.752696 8.465852-12.514738 5.521208-23.189073 13.98706-32.391086 24.661395-9.202013 11.042416-16.563623 24.293314-22.084831 40.488857s-8.097771 34.599569-8.097771 55.580158v179.623292h-83.186197V506.846873z m603.652049 377.650611h-81.713875V831.86197h-1.472322c-10.306254 19.140187-25.397556 34.231488-45.641984 45.641984-20.244428 11.410496-40.856937 17.299784-61.837527 17.299784-49.69087 0-85.762761-12.146657-107.847592-36.808051s-33.127247-61.837527-33.127246-111.528397v-239.620417H1855.125809v231.522645c0 33.127247 6.257369 56.6844 19.140187 70.303379 12.514738 13.618979 30.550683 20.612509 53.371675 20.612509 17.667865 0 32.023005-2.576564 43.801581-8.097771 11.778577-5.521208 21.34867-12.514738 28.3422-21.716751 7.36161-8.833932 12.514738-19.876348 15.827462-32.391085 3.312725-12.514738 4.785047-26.133717 4.785047-40.856938v-219.007908h83.186197v377.282531z m141.710999-121.09849c2.576564 24.293314 11.778577 41.225018 27.606039 51.163191 16.195543 9.570093 35.33573 14.723221 57.788642 14.723221 7.729691 0 16.563623-0.736161 26.501797-1.840402s19.508267-3.680805 27.974119-6.99353c8.833932-3.312725 15.827462-8.465852 21.716751-15.091301 5.521208-6.625449 8.097771-15.091301 7.729691-25.765637-0.368081-10.674335-4.416966-19.508267-11.778577-26.133716-7.36161-6.99353-16.563623-12.146657-27.974119-16.563624-11.410496-4.048886-24.293314-7.729691-39.016535-10.674335-14.723221-2.944644-29.446441-6.257369-44.537743-9.570093-15.459382-3.312725-30.550683-7.729691-44.905823-12.514738-14.35514-4.785047-27.237958-11.410496-38.648454-19.876348-11.410496-8.097771-20.612509-18.772106-27.237959-31.654924-6.99353-12.882818-10.306254-28.71028-10.306254-47.850468 0-20.612509 5.153127-37.544213 15.091301-51.531272 9.938174-13.98706 22.820992-25.029475 37.912293-33.495327 15.459382-8.465852 32.391086-14.35514 51.163192-18.035945 18.772106-3.312725 36.808052-5.153127 53.739756-5.153128 19.508267 0 38.280374 2.208483 55.948239 6.257369 17.667865 4.048886 33.863408 10.674335 48.218547 20.244429 14.35514 9.202013 26.133717 21.34867 35.703811 36.07189 9.570093 14.723221 15.459382 32.759166 18.035945 53.739756h-86.867002c-4.048886-19.876348-12.882818-33.495327-27.237959-40.120777-14.35514-6.99353-30.918763-10.306254-49.322789-10.306254-5.889288 0-12.882818 0.368081-20.980589 1.472322-8.097771 1.104242-15.459382 2.944644-22.820992 5.521208-6.99353 2.576564-12.882818 6.625449-18.035946 11.778576-4.785047 5.153127-7.36161 11.778577-7.36161 20.244429 0 10.306254 3.680805 18.404026 10.674335 24.661394 6.99353 6.257369 16.195543 11.410496 27.606039 15.827463 11.410496 4.048886 24.293314 7.729691 39.016535 10.674335 14.723221 2.944644 29.814522 6.257369 45.273903 9.570093 15.091301 3.312725 29.814522 7.729691 44.537743 12.514738 14.723221 4.785047 27.606039 11.410496 39.016535 19.876348 11.410496 8.465852 20.612509 18.772106 27.606039 31.286844 6.99353 12.514738 10.674335 28.3422 10.674335 46.746225 0 22.452912-5.153127 41.225018-15.459382 57.052481-10.306254 15.459382-23.557153 28.3422-39.752696 37.912293-16.195543 9.570093-34.599569 16.931704-54.475917 21.34867-19.876348 4.416966-39.752696 6.625449-59.260963 6.625449-23.925234 0-46.010065-2.576564-66.254493-8.097771-20.244428-5.521208-37.912293-13.618979-52.635514-24.293314-14.723221-11.042416-26.501797-24.661395-34.967649-40.856938-8.465852-16.195543-12.882818-35.70381-13.61898-58.156721H2245.291157z m274.588067-256.552121h62.941768v-113.3688h83.186197v113.3688h75.088426v62.205607h-75.088426v201.708124c0 8.833932 0.368081 16.195543 1.104242 22.820992 0.736161 6.257369 2.576564 11.778577 5.153127 16.195543 2.576564 4.416966 6.625449 7.729691 12.146657 9.938174 5.521208 2.208483 12.514738 3.312725 22.084831 3.312724 5.889288 0 11.778577 0 17.667865-0.36808 5.889288-0.368081 11.778577-1.104242 17.667865-2.576564v64.414091c-9.202013 1.104242-18.404026 1.840403-26.869878 2.944644-8.833932 1.104242-17.667865 1.472322-26.869878 1.472322-22.084831 0-39.752696-2.208483-53.003594-6.257369-13.250899-4.048886-23.925234-10.306254-31.286844-18.404026-7.729691-8.097771-12.514738-18.035945-15.459382-30.182602-2.576564-12.146657-4.416966-26.133717-4.785047-41.593099v-222.688713h-62.941768v-62.941768z m280.109273 0h78.769231v51.163192h1.472322c11.778577-22.084831 27.974119-37.544213 48.954709-47.114307 20.98059-9.570093 43.433501-14.35514 68.094896-14.35514 29.814522 0 55.580158 5.153127 77.664989 15.827463 22.084831 10.306254 40.488857 24.661395 55.212078 43.06542 14.723221 18.404026 25.397556 39.752696 32.759166 64.04601 7.36161 24.293314 11.042416 50.427031 11.042415 78.03307 0 25.397556-3.312725 50.05895-9.938174 73.616103-6.625449 23.925234-16.563623 44.905823-29.814522 63.309849-13.250899 18.404026-30.182602 32.759166-50.795111 43.801582-20.612509 11.042416-44.537743 16.563623-72.511862 16.563623-12.146657 0-24.293314-1.104242-36.439971-3.312724-12.146657-2.208483-23.925234-5.889288-34.967649-10.674335-11.042416-4.785047-21.716751-11.042416-30.918764-18.772107-9.570093-7.729691-17.299784-16.563623-23.925233-26.501797h-1.472323v188.457225h-83.186197V506.846873z m290.783609 189.193386c0-16.931704-2.208483-33.495327-6.625449-49.69087-4.416966-16.195543-11.042416-30.182602-19.876348-42.69734-8.833932-12.514738-19.876348-22.452912-32.759166-29.814522-13.250899-7.36161-28.3422-11.410496-45.273904-11.410496-34.967649 0-61.469446 12.146657-79.137311 36.439971-17.667865 24.293314-26.501797 56.6844-26.501797 97.173257 0 19.140187 2.208483 36.808052 6.99353 53.003594 4.785047 16.195543 11.410496 30.182602 20.980589 41.961179 9.202013 11.778577 20.244428 20.98059 33.127247 27.606039 12.882818 6.99353 27.974119 10.306254 44.905823 10.306255 19.140187 0 34.967649-4.048886 48.218548-11.778577 13.250899-7.729691 23.925234-18.035945 32.391085-30.182602 8.465852-12.514738 14.723221-26.501797 18.404026-42.32926 3.312725-15.827462 5.153127-32.023005 5.153127-48.586628z m146.864127-333.112869h83.186197V441.696621h-83.186197V362.92739z m0 143.919483h83.186197v377.650611h-83.186197V506.846873z m157.538461-143.919483H3478.360891v521.570094h-83.186197V362.92739z m338.265996 531.876348c-30.182602 0-57.05248-5.153127-80.609633-15.091301-23.557153-9.938174-43.433501-23.925234-59.997125-41.225018-16.195543-17.667865-28.71028-38.648454-37.176132-62.941768-8.465852-24.293314-12.882818-51.163192-12.882818-80.241553 0-28.71028 4.416966-55.212078 12.882818-79.505392 8.465852-24.293314 20.98059-45.273904 37.176132-62.941769 16.195543-17.667865 36.439971-31.286844 59.997125-41.225018 23.557153-9.938174 50.427031-15.091301 80.609633-15.091301s57.05248 5.153127 80.609634 15.091301c23.557153 9.938174 43.433501 23.925234 59.997124 41.225018 16.195543 17.667865 28.71028 38.648454 37.176132 62.941769 8.465852 24.293314 12.882818 50.795111 12.882818 79.505392 0 29.078361-4.416966 55.948239-12.882818 80.241553-8.465852 24.293314-20.98059 45.273904-37.176132 62.941768-16.195543 17.667865-36.439971 31.286844-59.997124 41.225018-23.557153 9.938174-50.427031 15.091301-80.609634 15.091301z m0-65.886412c18.404026 0 34.599569-4.048886 48.218548-11.778577 13.618979-7.729691 24.661395-18.035945 33.495327-30.550683 8.833932-12.514738 15.091301-26.869878 19.508267-42.69734 4.048886-15.827462 6.257369-32.023005 6.257369-48.586628 0-16.195543-2.208483-32.023005-6.257369-48.218548s-10.674335-30.182602-19.508267-42.69734c-8.833932-12.514738-19.876348-22.452912-33.495327-30.182603-13.618979-7.729691-29.814522-11.778577-48.218548-11.778576s-34.599569 4.048886-48.218548 11.778576c-13.618979 7.729691-24.661395 18.035945-33.495327 30.182603-8.833932 12.514738-15.091301 26.501797-19.508267 42.69734-4.048886 16.195543-6.257369 32.023005-6.257369 48.218548 0 16.563623 2.208483 32.759166 6.257369 48.586628 4.048886 15.827462 10.674335 30.182602 19.508267 42.69734 8.833932 12.514738 19.876348 22.820992 33.495327 30.550683 13.618979 8.097771 29.814522 11.778577 48.218548 11.778577z m214.959022-322.070453h62.941769v-113.3688h83.186197v113.3688h75.088426v62.205607h-75.088426v201.708124c0 8.833932 0.368081 16.195543 1.104241 22.820992 0.736161 6.257369 2.576564 11.778577 5.153128 16.195543 2.576564 4.416966 6.625449 7.729691 12.146657 9.938174 5.521208 2.208483 12.514738 3.312725 22.084831 3.312724 5.889288 0 11.778577 0 17.667865-0.36808 5.889288-0.368081 11.778577-1.104242 17.667865-2.576564v64.414091c-9.202013 1.104242-18.404026 1.840403-26.869878 2.944644-8.833932 1.104242-17.667865 1.472322-26.869878 1.472322-22.084831 0-39.752696-2.208483-53.003595-6.257369-13.250899-4.048886-23.925234-10.306254-31.286844-18.404026-7.729691-8.097771-12.514738-18.035945-15.459381-30.182602-2.576564-12.146657-4.416966-26.133717-4.785047-41.593099v-222.688713h-62.941769v-62.941768z" fill="#191919" p-id="9390"></path><path d="M998.602444 362.92739H617.271028L499.485262 0l-118.153846 362.92739L0 362.55931l308.819554 224.529116L190.665708 949.647735l308.819554-224.161035 308.451474 224.161035-117.785765-362.559309 308.451473-224.161036z" fill="#00B67A" p-id="9391"></path><path d="M716.652768 669.170381l-26.501797-82.081955-190.665709 138.398274z" fill="#005128" p-id="9392"></path></svg>