<?xml version="1.0" standalone="no"?><!DOCTYPE svg PUBLIC "-//W3C//DTD SVG 1.1//EN" "http://www.w3.org/Graphics/SVG/1.1/DTD/svg11.dtd"><svg t="1770374931963" class="icon" viewBox="0 0 3839 1024" version="1.1" xmlns="http://www.w3.org/2000/svg" p-id="2834" xmlns:xlink="http://www.w3.org/1999/xlink" width="239.9375" height="64"><path d="M2615.871183 294.079908c56.319982 0 104.415967 22.623993 144.223954 67.839979l3.104-40.703987c1.376-10.431997 6.527998-15.679995 15.455995-15.679995h112.319965c4.799999 0 8.575997 1.408 11.327996 4.191998a15.679995 15.679995 0 0 1 4.095999 11.519997v491.839846c0 50.783984-13.727996 91.839971-41.215987 123.199961-26.783992 31.99999-60.799981 54.623983-101.983968 67.839979a402.559874 402.559874 0 0 1-125.695961 19.839994 413.119871 413.119871 0 0 1-124.671961-18.751994c-39.135988-11.839996-72.447977-27.839991-99.935969-48.063985a13.119996 13.119996 0 0 1-6.175998-11.487997 17.279995 17.279995 0 0 1 2.047999-9.375997l40.191988-73.119977c4.127999-5.567998 8.255997-8.319997 12.351996-8.319997 3.455999 0 6.207998 0.672 8.255997 2.079999 23.359993 13.919996 47.391985 23.999993 72.127978 30.271991 25.407992 6.271998 53.215983 9.407997 83.455974 9.407997 35.007989 0 66.975979-7.679998 95.80797-22.975993 28.831991-14.623995 43.263986-39.359988 43.263986-74.143977v-48.031985c-39.839988 45.951986-89.279972 68.927978-148.351953 68.927979-46.015986 0-87.583973-11.839996-124.671961-35.519989-37.087988-23.679993-66.271979-55.679983-87.583973-96.06397-20.575994-40.383987-30.91199-84.255974-30.91199-131.583959 0-47.359985 10.335997-91.199972 30.91199-131.583959 21.311993-40.351987 50.495984-72.383977 87.583973-96.06397 37.119988-23.679993 78.655975-35.519989 124.671961-35.519989z m-1988.511379-1.503999c19.199994 0 37.503988 7.935998 50.559984 21.919993l277.695913 296.767907a68.799979 68.799979 0 0 1 0 94.047971l-277.663913 296.735907a69.279978 69.279978 0 0 1-50.591984 21.951993h-124.191961a17.855994 17.855994 0 0 1-13.119996-30.079991l245.599923-262.495918h-135.743957l-138.015957-146.303954h273.759914l-273.759914-292.543908h165.439948z m2587.519191 1.503999c47.391985 0 89.279972 11.487996 125.695961 34.463989a233.503927 233.503927 0 0 1 84.479974 92.927971c19.903994 38.975988 29.855991 81.439975 29.85599 127.39196 0 22.975993-2.399999 39.679988-7.199997 50.111985-4.799999 9.759997-14.751995 14.623995-29.887991 14.623995h-305.983904c7.551998 27.839991 22.303993 49.087985 44.287986 63.67998 22.687993 13.951996 51.167984 20.927993 85.535973 20.927994 17.151995 0 33.31199-2.111999 48.415985-6.271998a199.743938 199.743938 0 0 0 49.439984-23.999993 17.695994 17.695994 0 0 1 11.359997-4.191998c3.423999 0 7.199998 2.079999 11.327996 6.239998l53.567984 52.223983a14.239996 14.239996 0 0 1 4.127998 10.431997c0 4.159999-2.079999 8.383997-6.175998 12.543996a268.479916 268.479916 0 0 1-85.535973 58.463982 261.439918 261.439918 0 0 1-101.983968 19.839994c-51.519984 0-97.887969-11.839996-139.103957-35.519989a252.927921 252.927921 0 0 1-94.78397-96.03197c-22.655993-40.383987-33.983989-84.927973-33.983989-133.663958 0-48.735985 10.975997-93.279971 32.959989-133.663959a249.791922 249.791922 0 0 1 92.735971-95.03997c39.135988-23.679993 82.751974-35.519989 130.847959-35.519989zM1447.455548 87.039973c45.343986 0 84.159974 8.319997 116.447963 25.055992 32.95999 16.703995 57.695982 39.359988 74.175977 67.871979 17.151995 28.543991 25.759992 60.575981 25.759992 96.06397 0 36.223989-8.607997 67.871979-25.759992 95.03997-16.479995 27.135992-37.119988 45.951986-61.823981 56.383982 38.463988 10.431997 71.423978 31.67999 98.87997 63.679981 28.191991 32.03199 42.271987 70.687978 42.271986 115.935963 0 70.303978-22.335993 123.199962-66.975979 158.719951-43.967986 34.815989-111.263965 52.191984-201.919937 52.191983h-253.43992a15.199995 15.199995 0 0 1-11.359997-4.159998 15.647995 15.647995 0 0 1-4.127999-11.487997V102.719968c0-4.863998 1.376-8.703997 4.159999-11.487997a15.199995 15.199995 0 0 1 11.295997-4.159998h252.415921z m2265.215292 62.07998c4.799999 0 8.575997 1.408 11.327996 4.191999a15.615995 15.615995 0 0 1 4.095999 11.519996v133.023959h82.431974c4.799999 0 8.607997 1.408 11.327997 4.191999a15.615995 15.615995 0 0 1 4.127998 11.487996v95.03997a15.615995 15.615995 0 0 1-4.127998 11.455997 15.135995 15.135995 0 0 1-11.327997 4.191998h-82.431974v377.599882a15.615995 15.615995 0 0 1-4.095999 11.455997 15.199995 15.199995 0 0 1-11.327996 4.159999h-123.647962a15.199995 15.199995 0 0 1-11.327996-4.159999 15.615995 15.615995 0 0 1-4.127999-11.487997V424.223867h-82.431974a15.199995 15.199995 0 0 1-11.327996-4.159998 15.615995 15.615995 0 0 1-4.127999-11.519997v-95.03997c0-4.831998 1.376-8.671997 4.127999-11.455996a15.199995 15.199995 0 0 1 11.327996-4.159999h82.431974V164.799949c0-4.863998 1.376-8.703997 4.127999-11.487997a15.199995 15.199995 0 0 1 11.327996-4.159999h123.647962z m-1489.599535 0c4.799999 0 8.543997 1.408 11.295997 4.191999a15.679995 15.679995 0 0 1 4.159998 11.519996v133.023959h82.399975c4.799999 0 8.575997 1.408 11.327996 4.191999a15.615995 15.615995 0 0 1 4.127999 11.487996v95.03997a15.615995 15.615995 0 0 1-4.127999 11.455997 15.167995 15.167995 0 0 1-11.327996 4.191998h-82.431975v377.599882a15.679995 15.679995 0 0 1-4.127998 11.455997 15.199995 15.199995 0 0 1-11.327997 4.159999h-123.615961a15.199995 15.199995 0 0 1-11.359997-4.159999 15.647995 15.647995 0 0 1-4.095998-11.487997V424.223867h-82.431974a15.199995 15.199995 0 0 1-11.327997-4.159998 15.615995 15.615995 0 0 1-4.127999-11.519997v-95.03997c0-4.831998 1.376-8.671997 4.127999-11.455996a15.199995 15.199995 0 0 1 11.327997-4.159999h82.431974V164.799949a15.679995 15.679995 0 0 1 4.127998-11.487997 15.199995 15.199995 0 0 1 11.327997-4.159999h123.615961z m-309.503903 148.383954c4.799999 0 8.575997 1.376 11.327996 4.159999a15.647995 15.647995 0 0 1 4.127999 11.519996v488.223848a15.647995 15.647995 0 0 1-4.127999 11.519996 15.199995 15.199995 0 0 1-11.327996 4.159999h-123.647961a15.199995 15.199995 0 0 1-11.327997-4.159999 15.647995 15.647995 0 0 1-4.127999-11.519996V313.183902c0-4.863998 1.376-8.703997 4.159999-11.487996a15.199995 15.199995 0 0 1 11.295997-4.159999H1913.599402zM471.007853 0c15.679995 0 23.839993 18.623994 13.119996 30.079991L238.591925 292.543909h135.711958l138.015957 146.271954H238.559925l273.727915 292.575908h-165.439948c-19.199994 0-37.503988-7.935998-50.591985-21.919993L18.559994 412.735871a68.799979 68.799979 0 0 1 0-94.047971L296.255907 21.919993A69.311978 69.311978 0 0 1 346.847892 0h124.159961z m2164.447323 436.095864c-32.31999 0-59.423981 11.839996-81.407974 35.519989-21.983993 22.943993-32.95999 51.135984-32.95999 84.575973 0 34.111989 10.655997 62.97598 31.93599 86.655973 21.983993 22.975993 49.439985 34.463989 82.431974 34.463989 31.58399 0 58.367982-12.159996 80.319975-36.543988 22.015993-24.383992 32.99199-52.575984 32.99199-84.575974 0-32.03199-10.975997-59.903981-32.95999-83.551974-21.983993-24.383992-48.767985-36.543989-80.351975-36.543988z m-1180.799631 67.583979h-115.359964v171.263946h115.391964c31.58399 0 56.639982-7.327998 75.199977-21.919993 18.559994-14.623995 27.839991-36.543989 27.839991-65.79198 0-28.543991-9.279997-49.439985-27.839991-62.65598-18.559994-13.919996-43.615986-20.895993-75.199977-20.895993z m1761.24745-76.991976c-26.783992 0-49.791984 7.679998-69.023978 22.975992-19.231994 14.623995-31.61599 36.191989-37.119989 64.73598h208.127935c-4.799999-28.543991-16.479995-50.111984-35.007989-64.73598-18.559994-15.327995-40.895987-22.975993-66.975979-22.975992zM1433.055552 230.079928h-93.759971v139.935956h93.759971c25.407992 0 45.311986-5.919998 59.743982-17.759994 14.399996-12.511996 21.631993-30.97599 21.631993-55.327983 0-44.543986-27.135992-66.847979-81.375975-66.847979z m418.687869-143.039955c23.359993 0 42.943987 8.319997 58.719982 25.055992 15.807995 15.999995 23.679993 35.839989 23.679993 59.519981 0 22.975993-7.871998 42.815987-23.679993 59.519982-15.775995 15.999995-35.359989 23.999993-58.719982 23.999992s-42.943987-7.999998-58.719981-23.999992a83.679974 83.679974 0 0 1-23.679993-59.519982c0-23.679993 7.871998-43.519986 23.679993-59.519981 15.775995-16.703995 35.359989-25.055992 58.719981-25.055992z" fill="#1DA2B4" p-id="2835"></path></svg>